<?xml version="1.0" encoding="utf-8"?>
<!-- Generator: Adobe Illustrator 21.1.0, SVG Export Plug-In . SVG Version: 6.00 Build 0)  -->
<svg version="1.1" id="Слой_1" xmlns="http://www.w3.org/2000/svg" xmlns:xlink="http://www.w3.org/1999/xlink" x="0px" y="0px"
	 viewBox="0 0 282 60" style="enable-background:new 0 0 282 60;" xml:space="preserve">
<style type="text/css">
	.st0{fill:#FFFFFF;}
</style>
<g>
	<g>
		<path class="st0" d="M68.2,39.3c0.7,0,1.3-0.1,1.7-0.2c0.4-0.1,0.8-0.4,1-0.7c0.2-0.4,0.4-0.9,0.5-1.5c0.1-0.7,0.1-1.5,0.1-2.6
			v-6.8c0-1.1,0-1.9-0.1-2.6c-0.1-0.6-0.2-1.1-0.5-1.5c-0.2-0.4-0.6-0.6-1-0.7c-0.4-0.1-1-0.2-1.7-0.2v-0.9h8.9
			c1.8,0,3.3,0.2,4.6,0.7c1.3,0.5,2.4,1.1,3.2,2c0.8,0.8,1.5,1.8,1.8,2.9c0.4,1.1,0.6,2.3,0.6,3.6c0,1.3-0.2,2.5-0.6,3.6
			c-0.4,1.1-1,2.1-1.8,2.9c-0.8,0.8-1.9,1.5-3.2,2c-1.3,0.5-2.8,0.7-4.6,0.7h-8.9V39.3z M83.9,31c0-0.9-0.1-1.7-0.3-2.6
			c-0.2-0.9-0.5-1.7-1-2.5c-0.5-0.8-1.2-1.4-2-1.8c-0.9-0.5-2-0.7-3.4-0.7h-2.7v12.1c0,0.7,0,1.2,0.1,1.7c0.1,0.4,0.2,0.8,0.3,1
			c0.2,0.2,0.4,0.4,0.7,0.5c0.3,0.1,0.7,0.1,1.3,0.1h0.3c1.4,0,2.5-0.2,3.4-0.7c0.9-0.5,1.5-1.1,2-1.8c0.5-0.7,0.8-1.6,1-2.5
			C83.8,32.7,83.9,31.8,83.9,31z"/>
		<path class="st0" d="M104.4,36.1c-0.3,0.6-0.4,1.1-0.5,1.6c-0.1,0.4-0.1,0.7,0,1c0.1,0.3,0.4,0.4,0.9,0.5c0.4,0.1,1.1,0.1,1.9,0.1
			v0.9h-7.9v-0.9c0.6,0,1.2,0,1.6-0.1c0.4-0.1,0.8-0.3,1.1-0.5c0.3-0.3,0.6-0.6,0.8-1.1c0.3-0.5,0.5-1.1,0.9-1.9l6.2-14.5h0.6
			l6.2,14.5c0.3,0.8,0.6,1.4,0.9,1.9c0.3,0.5,0.5,0.9,0.8,1.1c0.3,0.3,0.6,0.4,1,0.5c0.4,0.1,0.8,0.1,1.4,0.1v0.9h-9.4v-0.9
			c1.5,0,2.4-0.2,2.7-0.7c0.3-0.5,0.1-1.3-0.4-2.6l-0.8-2h-6.9L104.4,36.1z M108.6,26l-2.8,6.5h5.5L108.6,26z"/>
		<path class="st0" d="M135,25c-0.1-0.6-0.2-1.1-0.5-1.5c-0.2-0.4-0.6-0.6-1-0.7c-0.4-0.1-1-0.2-1.7-0.2v-0.9h5.2l11.2,13.4v-7.7
			c0-1.1,0-1.9-0.1-2.6c-0.1-0.6-0.2-1.1-0.5-1.5c-0.2-0.4-0.6-0.6-1-0.7c-0.4-0.1-1-0.2-1.7-0.2v-0.9h8.2v0.9
			c-0.7,0-1.3,0.1-1.7,0.2c-0.4,0.1-0.8,0.3-1,0.7c-0.2,0.4-0.4,0.9-0.5,1.5c-0.1,0.6-0.1,1.5-0.1,2.6v13.3H149L136.7,26v8.3
			c0,1.1,0,1.9,0.1,2.6c0.1,0.7,0.2,1.2,0.5,1.5c0.2,0.4,0.6,0.6,1,0.7c0.4,0.1,1,0.2,1.7,0.2v0.8h-8.2v-0.8c0.7,0,1.3-0.1,1.7-0.2
			c0.4-0.1,0.8-0.4,1-0.7c0.2-0.4,0.4-0.9,0.5-1.5c0.1-0.7,0.1-1.5,0.1-2.6v-6.8C135.2,26.5,135.1,25.6,135,25z"/>
		<path class="st0" d="M170.3,23.4c-1,0-1.7,0-2.3,0.1s-1,0.3-1.3,0.5c-0.3,0.2-0.5,0.5-0.7,0.8c-0.1,0.3-0.3,0.8-0.4,1.3l-0.2,0.8
			h-0.8l0.3-5.2h18.7l0.3,5.2H183l-0.2-0.8c-0.1-0.5-0.2-0.9-0.4-1.3c-0.2-0.3-0.4-0.6-0.7-0.8c-0.3-0.2-0.7-0.4-1.3-0.5
			c-0.6-0.1-1.3-0.1-2.3-0.1h-2.4v10.9c0,1.1,0,1.9,0.1,2.6c0.1,0.7,0.2,1.2,0.5,1.5c0.3,0.4,0.6,0.6,1,0.7c0.4,0.1,1,0.2,1.7,0.2
			v0.8h-9.7v-0.8c0.7,0,1.3-0.1,1.7-0.2c0.4-0.1,0.8-0.4,1-0.7c0.3-0.4,0.4-0.9,0.5-1.5c0.1-0.7,0.1-1.5,0.1-2.6V23.4H170.3z"/>
		<path class="st0" d="M216.4,31c0,1.4-0.3,2.7-0.8,3.9c-0.5,1.2-1.3,2.3-2.2,3.2c-0.9,0.9-2,1.6-3.3,2.1c-1.2,0.5-2.6,0.8-4,0.8
			c-1.4,0-2.7-0.3-4-0.8c-1.2-0.5-2.3-1.2-3.3-2.1c-0.9-0.9-1.7-1.9-2.2-3.2c-0.5-1.2-0.8-2.5-0.8-3.9c0-1.4,0.3-2.6,0.8-3.8
			c0.5-1.2,1.3-2.2,2.2-3.1c0.9-0.9,2-1.6,3.3-2.1c1.2-0.5,2.6-0.8,4-0.8c1.4,0,2.7,0.3,4,0.8c1.2,0.5,2.3,1.2,3.3,2.1
			c0.9,0.9,1.7,2,2.2,3.1C216.1,28.3,216.4,29.6,216.4,31z M213,31c0-0.9-0.1-1.8-0.4-2.8c-0.2-1-0.6-1.9-1.2-2.7
			c-0.5-0.8-1.3-1.5-2.1-2c-0.9-0.5-1.9-0.8-3.2-0.8c-1.3,0-2.3,0.3-3.2,0.8c-0.9,0.5-1.6,1.2-2.1,2c-0.5,0.8-0.9,1.7-1.2,2.7
			c-0.2,1-0.4,1.9-0.4,2.8c0,0.9,0.1,1.9,0.4,2.9c0.2,1,0.6,1.9,1.2,2.7c0.5,0.8,1.2,1.5,2.1,2c0.9,0.5,1.9,0.8,3.2,0.8
			c1.2,0,2.3-0.3,3.2-0.8c0.9-0.5,1.6-1.2,2.1-2c0.5-0.8,0.9-1.7,1.2-2.7C212.8,32.8,213,31.9,213,31z"/>
		<path class="st0" d="M233.5,25c-0.1-0.6-0.2-1.1-0.5-1.5c-0.2-0.4-0.6-0.6-1-0.7c-0.4-0.1-1-0.2-1.7-0.2v-0.9h5.2l11.2,13.4v-7.7
			c0-1.1,0-1.9-0.1-2.6c-0.1-0.6-0.2-1.1-0.5-1.5c-0.2-0.4-0.6-0.6-1-0.7c-0.4-0.1-1-0.2-1.7-0.2v-0.9h8.2v0.9
			c-0.7,0-1.3,0.1-1.7,0.2c-0.4,0.1-0.8,0.3-1,0.7c-0.2,0.4-0.4,0.9-0.5,1.5c-0.1,0.6-0.1,1.5-0.1,2.6v13.3h-0.8L235.2,26v8.3
			c0,1.1,0,1.9,0.1,2.6c0.1,0.7,0.2,1.2,0.5,1.5c0.2,0.4,0.6,0.6,1,0.7c0.4,0.1,1,0.2,1.7,0.2v0.8h-8.2v-0.8c0.7,0,1.3-0.1,1.7-0.2
			c0.4-0.1,0.8-0.4,1-0.7c0.2-0.4,0.4-0.9,0.5-1.5c0.1-0.7,0.1-1.5,0.1-2.6v-6.8C233.6,26.5,233.6,25.6,233.5,25z"/>
		<path class="st0" d="M277.2,38.5c0.6-0.1,1.1-0.3,1.4-0.5c0.3-0.2,0.6-0.5,0.8-0.8c0.2-0.3,0.3-0.8,0.4-1.3L280,35h0.8l-0.3,5.1
			h-15.7v-0.8c0.7,0,1.3-0.1,1.7-0.2c0.4-0.1,0.8-0.4,1-0.7c0.2-0.4,0.4-0.9,0.5-1.5c0.1-0.7,0.1-1.5,0.1-2.6v-6.8
			c0-1.1,0-1.9-0.1-2.6c-0.1-0.6-0.2-1.1-0.5-1.5c-0.2-0.4-0.6-0.6-1-0.7c-0.4-0.1-1-0.2-1.7-0.2v-0.9h9.3h5.4l0.3,5.1h-0.9
			l-0.2-0.8c-0.1-0.5-0.2-0.9-0.4-1.3c-0.2-0.4-0.4-0.6-0.7-0.8c-0.3-0.2-0.8-0.4-1.4-0.5c-0.6-0.1-1.4-0.1-2.3-0.1h-2.8v6.3h0.3
			c1.1,0,1.9,0,2.5-0.1c0.6-0.1,1.1-0.2,1.3-0.5c0.3-0.2,0.5-0.6,0.6-1c0.1-0.4,0.1-1,0.1-1.7h0.8v8.3h-0.8c0-0.7,0-1.3-0.1-1.7
			c-0.1-0.4-0.3-0.8-0.6-1c-0.3-0.2-0.7-0.4-1.3-0.5c-0.6-0.1-1.4-0.1-2.5-0.1h-0.3v2.5c0,1,0,1.9,0.1,2.6c0.1,0.7,0.2,1.2,0.5,1.5
			c0.2,0.4,0.6,0.6,1,0.7c0.4,0.1,1,0.2,1.7,0.2h0.5C275.9,38.6,276.6,38.6,277.2,38.5z"/>
	</g>
	<path class="st0" d="M35.7,22.1c-0.7,0.1-1.5,0.3-1.9,0.9c0,0,0,0.1,0,0.1c0,0,0.1,0,0.1,0l0,0c0.4-0.5,1.1-0.7,1.8-0.7
		c0.3,0,0.7,0.1,1,0.1c0.3,0.1,0.7,0.2,1,0.3c1.4,0.3,2.9,0,4.2-0.7c0.6-0.4,1.2-0.8,1.7-1.3c0.3-0.3,0.5-0.5,0.7-0.8
		c0.2-0.3,0.5-0.5,0.7-0.7c0.5-0.5,1.1-0.8,1.8-1c0.6-0.2,1.3-0.3,2-0.3l0,0c0,0,0,0,0,0c0.1,0,0.1-0.1,0.1-0.1
		c0-0.1-0.1-0.1-0.1-0.1c-1.4-0.1-2.8,0.4-4,1.2c-0.3,0.2-0.6,0.4-0.9,0.7c-0.3,0.2-0.5,0.5-0.7,0.7c-0.5,0.5-1,0.9-1.6,1.2
		c-1.2,0.7-2.5,0.9-3.8,0.8c-0.3,0-0.6-0.1-1-0.2C36.4,22.1,36,22.1,35.7,22.1z M26.6,20.7c0.5,0.9,0.9,1.9,1,2.9l0,0c0,0,0,0,0,0
		c0,0.1,0.1,0.1,0.2,0.1c0.1,0,0.1-0.1,0.1-0.2c-0.2-1.1-0.5-2.1-1-3c-0.5-1-1-1.9-1.8-2.7c-0.8-0.8-1.7-1.2-2.7-1.7
		c-0.5-0.2-0.9-0.4-1.3-0.7c-0.4-0.3-0.8-0.6-1-1.1c0,0,0,0,0,0c0-0.1-0.1-0.1-0.2,0c-0.1,0-0.1,0.1,0,0.2c0.6,0.9,1.5,1.5,2.3,2.1
		c0.8,0.6,1.7,1.2,2.4,1.8C25.4,19.1,26.1,19.8,26.6,20.7z M32.2,23.8c0.1,0,0.2,0,0.2-0.1v0c0.1-1,0.5-2,1-2.9
		c0.5-0.9,1.2-1.6,2-2.2c0.8-0.6,1.6-1.2,2.4-1.8c0.8-0.6,1.7-1.2,2.3-2.1c0,0,0,0,0,0c0-0.1,0-0.1-0.1-0.2c-0.1,0-0.1,0-0.2,0.1
		c-0.2,0.4-0.6,0.8-1,1.1c-0.4,0.3-0.9,0.5-1.3,0.7c-0.9,0.4-1.9,0.9-2.7,1.7c-0.8,0.7-1.3,1.7-1.8,2.7c-0.5,1-0.8,2-1,3
		c0,0,0,0,0,0C32,23.7,32.1,23.8,32.2,23.8z M23.9,13.3c0.7,0.6,1.4,1.1,2.1,1.6c0.2,0.1,0.3,0.3,0.5,0.4c0.2,0.1,0.3,0.3,0.5,0.4
		c0.3,0.3,0.6,0.6,0.8,0.9c0.5,0.7,0.8,1.5,1,2.3l0,0c0,0.1,0.1,0.1,0.2,0.1c0.1,0,0.2-0.1,0.1-0.2c0-0.9-0.3-1.8-0.8-2.6
		c-0.2-0.4-0.5-0.8-0.8-1.1c-0.2-0.2-0.3-0.3-0.5-0.5c-0.2-0.1-0.4-0.3-0.6-0.4c-0.7-0.5-1.5-0.9-2.2-1.4c-0.3-0.3-0.6-0.5-0.9-0.9
		c-0.2-0.4-0.3-0.8-0.2-1.2c0-0.1,0-0.1-0.1-0.1c-0.1,0-0.1,0-0.1,0.1c-0.1,0.4-0.1,1,0.1,1.4C23.2,12.7,23.5,13,23.9,13.3z
		 M26,23.2c0,0,0.1,0,0.1,0c0,0,0.1-0.1,0-0.1c-0.5-0.6-1.2-0.9-1.9-0.9c-0.4,0-0.7,0-1.1,0.1c-0.4,0.1-0.7,0.2-1,0.2
		c-1.3,0.2-2.7-0.1-3.8-0.8c-0.6-0.3-1.1-0.8-1.6-1.2c-0.2-0.2-0.5-0.5-0.7-0.7c-0.3-0.2-0.6-0.5-0.9-0.7c-1.2-0.8-2.6-1.3-4-1.2
		c0,0,0,0,0,0c-0.1,0-0.1,0.1-0.1,0.2c0,0.1,0.1,0.1,0.1,0.1l0,0c0.7-0.1,1.4,0,2,0.3c0.6,0.2,1.2,0.6,1.7,1
		c0.3,0.2,0.5,0.5,0.7,0.7c0.2,0.3,0.4,0.5,0.7,0.8c0.5,0.5,1.1,1,1.7,1.3c1.3,0.7,2.8,1,4.2,0.7c0.4-0.1,0.7-0.2,1-0.3
		c0.3-0.1,0.7-0.1,1-0.1C24.9,22.5,25.6,22.7,26,23.2L26,23.2z M31,19.2c0.1,0,0.2,0,0.2-0.1l0,0c0.2-0.8,0.5-1.6,1-2.3
		c0.2-0.3,0.5-0.6,0.8-0.9c0.1-0.1,0.3-0.3,0.4-0.4c0.2-0.1,0.3-0.3,0.5-0.4c0.7-0.5,1.4-1,2.1-1.6c0.3-0.3,0.7-0.6,0.9-1.1
		c0.2-0.4,0.2-0.9,0.1-1.4c0-0.1-0.1-0.1-0.1-0.1c-0.1,0-0.1,0.1-0.1,0.1c0.1,0.4,0,0.9-0.2,1.2c-0.2,0.4-0.5,0.6-0.9,0.9
		c-0.7,0.5-1.5,0.9-2.2,1.4c-0.2,0.1-0.4,0.2-0.6,0.4c-0.2,0.1-0.4,0.3-0.5,0.5c-0.3,0.3-0.6,0.7-0.8,1.1c-0.4,0.8-0.7,1.7-0.8,2.6
		C30.9,19.1,31,19.2,31,19.2z M15.6,56.9c1.5-0.1,2.8-0.5,4.1-1.3c0.6-0.4,1.2-0.9,1.6-1.6c0.2-0.3,0.4-0.6,0.6-1
		c0.2-0.3,0.3-0.7,0.4-1.1c0.2-0.7,0.2-1.6,0-2.3c-0.3-0.8-0.9-1.4-1.7-1.6c-0.4-0.1-0.8-0.1-1.1,0c-0.1,0-0.2,0.1-0.3,0.1
		c0,0-0.1,0.1-0.1,0.1l-0.1,0.1c-0.2,0.1-0.3,0.3-0.4,0.4c-0.2,0.3-0.3,0.8-0.3,1.1c0,0.2,0.1,0.4,0.1,0.6c0.1,0.2,0.1,0.4,0.4,0.6
		l0.1,0.1c0.1,0.1,0.2,0.1,0.3,0.1c0.2,0,0.3-0.2,0.3-0.4c0-0.2-0.2-0.3-0.4-0.3c-0.1,0-0.2-0.1-0.3-0.2c-0.1-0.1-0.1-0.3-0.2-0.5
		c0-0.3,0-0.6,0.2-0.9c0.1-0.1,0.2-0.2,0.3-0.3l0.1-0.1c0,0,0.1,0,0.1-0.1c0.1,0,0.1-0.1,0.2-0.1c0.3-0.1,0.6,0,0.9,0.1
		c0.6,0.2,1.1,0.7,1.2,1.3c0.2,0.6,0.1,1.3-0.1,1.9c-0.1,0.3-0.2,0.6-0.4,0.9c-0.2,0.3-0.3,0.6-0.5,0.9c-0.4,0.6-0.8,1.1-1.3,1.6
		c-0.5,0.5-1.1,0.8-1.7,1.1c-0.6,0.2-1.3,0.4-2,0.4h0c0,0,0,0,0,0c-0.1,0-0.2,0.1-0.2,0.2C15.4,56.9,15.5,56.9,15.6,56.9z
		 M30.9,55.5c-0.1,0.1-0.1,0.2,0,0.2c0.1,0.1,0.2,0.1,0.3,0.1c0.5-0.3,0.9-0.7,1.2-1.1c0.4-0.4,0.7-0.9,0.9-1.4
		c0.5-1,0.9-2.1,1.1-3.2c0-0.1,0-0.1-0.1-0.1c-0.1,0-0.1,0-0.1,0.1c-0.1,0.5-0.3,1.1-0.5,1.6c-0.2,0.5-0.5,1-0.8,1.4
		c-0.3,0.5-0.6,0.9-1,1.3C31.7,54.7,31.3,55.1,30.9,55.5L30.9,55.5z M33.5,55.4c-0.4,0.3-0.8,0.5-1.2,0.7c-0.4,0.2-0.8,0.3-1.2,0.4
		l0,0c-0.1,0-0.1,0.1-0.1,0.2c0,0.1,0,0.2,0.2,0.2c0.6,0.1,1.1-0.1,1.5-0.3c0.5-0.2,0.8-0.6,1.2-0.9c0.7-0.7,1.3-1.5,1.8-2.3
		c0-0.1,0-0.2,0-0.2c-0.1,0-0.2,0-0.2,0c-0.3,0.4-0.6,0.8-0.9,1.2C34.2,54.8,33.9,55.1,33.5,55.4z M30,56.2c-0.3,0-0.5,0.3-0.5,0.6
		c0,0.3,0.2,0.6,0.5,0.6c0.3,0,0.5-0.3,0.5-0.6C30.5,56.4,30.3,56.2,30,56.2z M57.6,41.4c-0.6-1.1-1.4-2.1-2.3-2.8
		c-0.9-0.8-2-1.3-3.1-1.8c-1-0.4-2-0.7-3.1-0.8c0-0.1,0-0.1,0-0.2c0.4-0.7,0.6-1.5,0.7-2.3c0.1-1,0-2-0.5-2.9
		c-0.2-0.4-0.6-0.8-1-1.1C48,29.3,47.5,29.1,47,29c-0.5-0.1-0.9-0.1-1.4-0.1c-0.2,0-0.3,0-0.5,0.1c0.2-0.2,0.4-0.3,0.6-0.5
		c0.4-0.4,0.8-0.8,1.1-1.3c0.3-0.4,0.6-0.8,1-1.2c0.4-0.4,0.7-0.7,1.1-1.1l0,0c0,0,0,0,0,0c0-0.1,0-0.1-0.1-0.2v0
		c-0.3-0.3-0.7-0.5-1.1-0.5c-0.4-0.1-0.8-0.1-1.2,0c-0.4,0-0.8,0.1-1.1,0.2c0.3-0.2,0.7-0.5,1-0.8c0.6-0.6,1.1-1.2,1.5-2
		c0.4-0.7,0.9-1.2,1.4-1.8c0.5-0.6,1.1-1.1,1.7-1.6l0.1,0c0,0,0,0,0-0.1c0-0.1,0-0.1-0.1-0.2v0c-0.9-0.6-1.8-1.1-2.8-1.4
		c-1-0.3-2.1-0.5-3.1-0.4c-1.1,0.1-2.1,0.4-3,0.9c-0.7,0.4-1.3,0.8-1.9,1.4c0.3-0.8,0.6-1.7,0.7-2.6c0.1-0.6,0.2-1.2,0.3-1.7
		c0-0.3,0-0.6,0.1-0.9c0-0.3,0-0.6-0.1-0.9l0-0.1c0,0,0-0.1-0.1-0.1c-0.1,0-0.1,0-0.2,0.1v0c-0.4,0.5-1,1-1.6,1.4
		c-0.3,0.2-0.6,0.4-0.9,0.5c-0.1,0.1-0.3,0.1-0.4,0.2c0.3-0.4,0.6-0.8,0.9-1.3c0.3-0.7,0.5-1.4,0.5-2.2c0-0.4-0.1-0.8-0.3-1.2
		c-0.2-0.4-0.4-0.7-0.8-1c-0.2-0.1-0.4-0.2-0.7-0.2c-0.2,0-0.4,0.1-0.6,0.1c-0.3,0.1-0.5,0.3-0.6,0.5c-0.1-0.7-0.3-1.4-0.6-2.1
		c-0.3-0.8-0.8-1.5-1.3-2.2c-0.6-0.7-1.2-1.2-2-1.6c-0.8-0.4-1.6-0.5-2.5-0.6c0,0,0,0,0,0c0,0,0,0,0,0c-0.8,0-1.7,0.2-2.4,0.6
		c-0.8,0.4-1.5,0.9-2,1.6c-0.6,0.6-1,1.4-1.3,2.2c-0.3,0.7-0.5,1.4-0.6,2.1c-0.2-0.2-0.4-0.4-0.6-0.5c-0.2-0.1-0.4-0.1-0.6-0.1
		c-0.2,0-0.5,0.1-0.7,0.2c-0.4,0.2-0.6,0.6-0.8,1c-0.2,0.4-0.2,0.8-0.3,1.2c0,0.8,0.2,1.5,0.5,2.2c0.2,0.5,0.5,0.9,0.9,1.3
		c-0.2-0.1-0.3-0.1-0.4-0.2c-0.3-0.1-0.6-0.3-0.9-0.5c-0.6-0.4-1.1-0.8-1.6-1.4v0c0,0,0-0.1-0.1-0.1c-0.1,0-0.1,0-0.2,0.1l0,0.1
		c-0.1,0.3-0.1,0.6-0.1,0.9c0,0.3,0,0.6,0.1,0.9c0.1,0.6,0.1,1.2,0.3,1.7c0.2,0.9,0.4,1.7,0.7,2.6c-0.6-0.6-1.2-1-1.9-1.4
		c-0.9-0.5-2-0.8-3-0.9c-1.1-0.1-2.1,0.1-3.1,0.4c-1,0.3-2,0.8-2.8,1.4v0c0,0,0,0-0.1,0c0,0.1,0,0.1,0,0.2l0.1,0
		c0.6,0.5,1.2,1.1,1.7,1.6c0.5,0.6,1,1.1,1.4,1.8c0.4,0.7,0.9,1.4,1.5,2c0.3,0.3,0.6,0.6,1,0.8c-0.4-0.1-0.8-0.2-1.1-0.2
		c-0.4,0-0.8,0-1.2,0c-0.4,0.1-0.8,0.2-1.1,0.5v0c0,0,0,0,0,0c0,0.1,0,0.1,0,0.2l0,0c0.4,0.3,0.8,0.7,1.1,1.1c0.3,0.4,0.7,0.8,1,1.2
		c0.3,0.5,0.7,0.9,1.1,1.3c0.2,0.2,0.4,0.4,0.6,0.5c-0.2,0-0.3-0.1-0.5-0.1c-0.5,0-0.9,0-1.4,0.1c-0.5,0.1-0.9,0.3-1.3,0.6
		c-0.4,0.3-0.7,0.7-1,1.1c-0.5,0.9-0.6,1.9-0.5,2.9c0.1,0.9,0.4,1.7,0.8,2.5c-1.1,0.1-2.1,0.4-3.2,0.8c-1.1,0.4-2.1,1-3.1,1.8
		c-0.9,0.8-1.8,1.7-2.3,2.8c-0.5,1.1-0.8,2.4-0.7,3.7c0.1,1.3,0.5,2.5,1.3,3.5c0.4,0.5,0.9,1,1.4,1.3c0.1,0.1,0.3,0.1,0.4,0.2l0.1,0
		l0.1,0l0.2,0.1c0.3,0.1,0.6,0.2,0.9,0.2c1.2,0.2,2.5,0.1,3.6-0.4c0.5-0.3,1-0.6,1.5-1.1c0.1-0.1,0.2-0.2,0.3-0.3
		c0.1-0.1,0.2-0.2,0.3-0.2c0.2-0.1,0.5-0.2,0.8-0.2c1.1-0.1,2.2,0.4,2.8,1.4c0.6,1,0.6,2.2,0.2,3.2c-0.2,0.5-0.5,1-0.9,1.4
		c-0.4,0.4-0.8,0.7-1.3,0.7c-0.2,0-0.5,0-0.7-0.1c-0.2-0.1-0.6-0.3-1-0.2c-0.2,0.1-0.4,0.2-0.5,0.4c-0.1,0.2-0.1,0.4-0.2,0.6
		c0,0.4,0.1,0.7,0.2,1c0.3,0.6,0.8,1,1.2,1.4c0.5,0.4,1,0.7,1.6,0.9c1.1,0.4,2.4,0.5,3.5,0.3c1.2-0.2,2.3-0.6,3.3-1.2
		c1-0.6,1.9-1.3,2.6-2.2c0.8,0.9,1.8,1.6,2.9,2.1c1.2,0.5,2.4,0.8,3.6,0.8h0h0l0,0c1.2,0,2.5-0.3,3.6-0.8c1.1-0.5,2.1-1.2,2.9-2.1
		c0.7,0.9,1.6,1.6,2.6,2.2c1,0.6,2.1,1,3.3,1.2c1.2,0.2,2.4,0.1,3.5-0.3c0.6-0.2,1.1-0.5,1.6-0.9c0.5-0.4,0.9-0.8,1.2-1.4
		c0.2-0.3,0.3-0.6,0.2-1c0-0.2,0-0.4-0.2-0.6c-0.1-0.2-0.3-0.3-0.5-0.4c-0.4-0.1-0.8,0.1-1,0.2C47.1,55,46.9,55,46.6,55
		c-0.5,0-1-0.3-1.3-0.7c-0.4-0.4-0.7-0.9-0.9-1.4c-0.4-1-0.3-2.3,0.2-3.2c0.5-1,1.7-1.5,2.8-1.4c0.3,0,0.5,0.1,0.8,0.2
		c0.1,0.1,0.2,0.1,0.3,0.2c0.1,0.1,0.2,0.2,0.3,0.3c0.4,0.5,0.9,0.8,1.5,1.1c1.1,0.5,2.4,0.7,3.6,0.4c0.3-0.1,0.6-0.1,0.9-0.2
		l0.2-0.1l0.1,0l0.1,0c0.2-0.1,0.3-0.1,0.4-0.2c0.6-0.3,1-0.8,1.4-1.3c0.8-1,1.2-2.3,1.3-3.5C58.4,43.9,58.1,42.6,57.6,41.4z
		 M24.5,7.1c0.3-0.7,0.8-1.4,1.3-2c0.5-0.6,1.2-1,1.9-1.3c0.7-0.3,1.5-0.4,2.2-0.3c0,0,0,0,0,0c0.7,0,1.5,0.1,2.2,0.3
		c0.7,0.3,1.4,0.7,1.9,1.3c0.5,0.6,1,1.3,1.3,2c0.3,0.7,0.6,1.5,0.7,2.2c-0.5,0.3-1,0.4-1.5,0.3c-0.5-0.1-1-0.4-1.5-0.7
		c-0.5-0.3-0.9-0.7-1.4-1.1c-0.5-0.3-1.1-0.7-1.8-0.7c0,0,0,0,0,0h0l0,0c0,0,0,0,0,0c0,0,0,0,0,0c-0.7,0-1.3,0.4-1.7,0.7
		c-0.5,0.3-1,0.7-1.4,1.1c-0.5,0.3-1,0.6-1.5,0.7c-0.5,0.1-1-0.1-1.5-0.3C23.9,8.6,24.2,7.8,24.5,7.1z M21.6,12.6
		c-0.2-0.6-0.4-1.3-0.3-1.9c0-0.3,0.1-0.6,0.2-0.9c0.1-0.3,0.3-0.5,0.5-0.6c0.2-0.1,0.4-0.1,0.7-0.1c0.3,0.1,0.6,0.2,0.8,0.4
		c0,0,0,0,0,0c0,0,0,0,0,0l0,0c0.5,0.4,1.1,0.6,1.8,0.6c0.3,0,0.6-0.1,0.9-0.2c0.3,0.3,0.6,0.5,0.9,0.8c0.3,0.3,0.6,0.7,0.9,1.1
		c0.2,0.4,0.4,0.8,0.6,1.3c0.1,0.5,0.2,0.9,0.2,1.4v0c0,0,0,0,0,0c0,0.1,0.1,0.2,0.2,0.1c0.1,0,0.1-0.1,0.1-0.2c0-0.5-0.1-1-0.3-1.5
		c-0.1-0.5-0.3-1-0.5-1.4c-0.2-0.5-0.5-0.9-0.8-1.3c-0.2-0.2-0.5-0.5-0.8-0.6c0.1-0.1,0.3-0.1,0.4-0.2c0.3-0.2,0.6-0.4,0.9-0.6
		c0.1,0.2,0.3,0.4,0.4,0.5c0.2,0.3,0.3,0.6,0.5,0.9c0.1,0.3,0.2,0.6,0.3,0.9c0.1,0.3,0.1,0.7,0.2,1v0c0,0.1,0.1,0.1,0.1,0.1
		c0.1,0,0.1-0.1,0.1-0.1c0-0.7-0.2-1.4-0.4-2.1c-0.1-0.3-0.2-0.7-0.4-1c-0.1-0.2-0.2-0.4-0.4-0.5c0.1,0,0.1-0.1,0.2-0.1
		c0.4-0.2,0.8-0.4,1.2-0.4c0,0.1,0,0.3,0,0.4c0,0.2,0.1,0.4,0.1,0.6c0.1,0.4,0.1,0.8,0.1,1.2c0,0.1,0,0.1,0.1,0.1
		c0.1,0,0.1,0,0.1-0.1c0-0.4,0-0.8,0.1-1.2c0-0.2,0.1-0.4,0.1-0.6c0-0.1,0-0.3,0-0.4c0.4,0,0.8,0.2,1.2,0.4c0.1,0,0.1,0.1,0.2,0.1
		c-0.1,0.2-0.3,0.3-0.4,0.5c-0.2,0.3-0.3,0.6-0.4,1c-0.2,0.7-0.3,1.4-0.4,2.1c0,0,0,0,0,0c0,0.1,0,0.1,0.1,0.1c0.1,0,0.1,0,0.1-0.1
		v0c0-0.3,0.1-0.7,0.2-1c0.1-0.3,0.2-0.6,0.3-0.9c0.1-0.3,0.3-0.6,0.5-0.9C31.7,9.2,31.8,9,32,8.8c0.3,0.2,0.6,0.4,0.9,0.6
		c0.1,0.1,0.2,0.1,0.4,0.2c-0.3,0.2-0.6,0.4-0.8,0.6c-0.3,0.4-0.6,0.8-0.8,1.3c-0.2,0.5-0.4,0.9-0.5,1.4c-0.1,0.5-0.2,1-0.3,1.5
		c0,0,0,0,0,0c0,0.1,0.1,0.2,0.2,0.2c0.1,0,0.2-0.1,0.2-0.2v0c0-0.5,0.1-0.9,0.2-1.4c0.1-0.5,0.3-0.9,0.6-1.3
		c0.2-0.4,0.5-0.7,0.9-1.1c0.3-0.3,0.6-0.5,0.9-0.8c0.3,0.1,0.6,0.2,0.9,0.2c0.6,0.1,1.3-0.2,1.8-0.6l0,0c0,0,0,0,0,0c0,0,0,0,0,0
		c0.3-0.2,0.6-0.3,0.8-0.4c0.3-0.1,0.5,0,0.7,0.1c0.2,0.1,0.4,0.3,0.5,0.6c0.1,0.3,0.2,0.6,0.2,0.9c0,0.6-0.1,1.3-0.3,1.9
		c-0.2,0.6-0.5,1.2-0.9,1.7c-0.4,0.2-0.8,0.5-1.2,0.7c-0.5,0.2-0.9,0.5-1.4,0.8c-0.9,0.6-1.7,1.2-2.4,2.1c-0.7,0.8-1.2,1.7-1.7,2.7
		c-0.3,0.7-0.6,1.5-0.8,2.2c-0.2-0.8-0.4-1.5-0.8-2.2c-0.4-1-1-1.9-1.7-2.7c-0.7-0.8-1.5-1.5-2.4-2.1c-0.4-0.3-0.9-0.5-1.4-0.8
		c-0.4-0.2-0.9-0.4-1.2-0.7C22.1,13.8,21.8,13.2,21.6,12.6z M10.9,34.6c-0.1-0.4-0.1-0.7-0.1-1.1c-0.1-0.9,0.1-1.7,0.4-2.5
		c0.4-0.8,1-1.3,1.8-1.5c0.8-0.2,1.7-0.2,2.5,0l0,0c0.1,0,0.1,0,0.2-0.1c0-0.1,0-0.2-0.1-0.2l0,0c-0.4-0.2-0.9-0.6-1.2-1
		c-0.4-0.4-0.7-0.8-0.9-1.3c-0.2-0.5-0.6-1-1-1.4c-0.3-0.3-0.7-0.6-1.1-0.8c0.2-0.1,0.5-0.2,0.7-0.2c0.4-0.1,0.7-0.1,1.1,0
		c0.7,0,1.5,0.2,2.2,0.4l0,0c0,0,0,0,0,0c0.8,0.3,1.7,0.5,2.6,0.6c0.9,0.1,1.9-0.1,2.7-0.5c0.2-0.1,0.4-0.2,0.6-0.4
		c0.2-0.1,0.4-0.3,0.5-0.4c0.4-0.2,0.8-0.4,1.2-0.5c0.4-0.1,0.9,0,1.2,0.1c0.4,0.2,0.7,0.5,1,0.9l0,0c0,0,0,0,0,0c0,0,0.1,0.1,0.1,0
		c0,0,0.1-0.1,0-0.1c-0.3-0.4-0.6-0.7-1-1c-0.4-0.2-0.9-0.3-1.4-0.3c-0.5,0-0.9,0.2-1.4,0.4c-0.2,0.1-0.4,0.2-0.6,0.3
		c-0.2,0.1-0.4,0.2-0.6,0.3c-0.8,0.4-1.6,0.6-2.5,0.6c-0.9,0-1.7-0.1-2.5-0.5c0,0,0,0,0,0l0,0c-0.7-0.3-1.4-0.8-1.9-1.4
		c-0.5-0.6-1-1.3-1.2-2c-0.3-0.8-0.8-1.6-1.4-2.1c-0.5-0.5-1.1-0.9-1.8-1.2c0.8-0.4,1.7-0.8,2.5-1.1c1-0.3,2-0.5,3-0.4
		c1,0,2,0.3,2.9,0.7c0.9,0.5,1.7,1.1,2.3,1.9c0,0,0,0,0,0c0.2,0.3,0.3,0.5,0.5,0.8c0.2,0.2,0.4,0.5,0.6,0.7c0.4,0.4,1,0.8,1.5,1l0,0
		c0.1,0,0.1,0,0.1-0.1c0-0.1,0-0.1-0.1-0.1c-0.5-0.2-1-0.6-1.4-1c-0.4-0.4-0.8-0.9-1-1.5l0,0c0,0,0,0,0,0c0,0,0,0,0,0
		c-0.4-1.1-0.7-2.2-0.9-3.3c-0.1-0.6-0.2-1.1-0.2-1.7c0-0.3,0-0.6,0-0.9c0-0.1,0-0.3,0-0.4c0.4,0.4,0.8,0.8,1.3,1.1
		c0.3,0.2,0.6,0.4,0.9,0.5c0.2,0.1,0.5,0.2,0.8,0.3c0,0,0,0,0.1,0.1c0.9,0.5,1.8,1,2.6,1.7c0.8,0.6,1.5,1.3,2.1,2.1
		c1.3,1.5,2.2,3.4,2.9,5.3c0,0.1,0.1,0.1,0.2,0.1c0,0,0,0,0,0c0,0,0,0,0,0l0,0c0.1,0,0.1-0.1,0.1-0.1c0.8-1.9,1.7-3.8,2.9-5.3
		c0.6-0.8,1.3-1.5,2.1-2.1c0.8-0.6,1.7-1.1,2.6-1.7c0,0,0,0,0,0c0,0,0,0,0,0c0.3-0.1,0.5-0.2,0.8-0.3c0.3-0.2,0.6-0.3,0.9-0.5
		c0.5-0.3,0.9-0.7,1.3-1.1c0,0.1,0,0.3,0,0.4c0,0.3,0,0.6,0,0.9c0,0.6-0.1,1.1-0.2,1.7c-0.2,1.1-0.5,2.2-0.9,3.3c0,0,0,0,0,0l0,0
		c-0.3,0.5-0.6,1-1,1.5c-0.4,0.4-0.9,0.8-1.4,1l0,0c-0.1,0-0.1,0.1-0.1,0.1c0,0.1,0.1,0.1,0.1,0.1c0.6-0.2,1.1-0.6,1.5-1
		c0.2-0.2,0.4-0.4,0.6-0.7c0.2-0.2,0.4-0.5,0.5-0.8c0,0,0,0,0,0c0,0,0,0,0,0c0.6-0.8,1.5-1.4,2.3-1.9c0.9-0.5,1.9-0.7,2.9-0.7
		c1,0,2,0.1,3,0.4c0.9,0.3,1.7,0.6,2.5,1.1c-0.7,0.3-1.3,0.7-1.8,1.2c-0.6,0.6-1.1,1.3-1.4,2.1c-0.2,0.8-0.7,1.4-1.2,2
		c-0.5,0.6-1.2,1.1-1.9,1.4l0,0c0,0,0,0,0,0c-0.8,0.3-1.7,0.5-2.5,0.5c-0.9,0-1.7-0.2-2.5-0.6c-0.2-0.1-0.4-0.2-0.6-0.3
		c-0.2-0.1-0.4-0.2-0.6-0.3c-0.4-0.2-0.9-0.3-1.4-0.4c-0.5,0-1,0.1-1.4,0.3c-0.4,0.2-0.8,0.5-1,1v0c0,0,0,0.1,0,0.1c0,0,0.1,0,0.1,0
		l0,0c0.2-0.4,0.6-0.7,1-0.9c0.4-0.2,0.8-0.2,1.2-0.1c0.4,0.1,0.8,0.3,1.2,0.5c0.2,0.1,0.4,0.2,0.5,0.4c0.2,0.1,0.4,0.3,0.6,0.4
		c0.9,0.4,1.8,0.5,2.7,0.5c0.9-0.1,1.8-0.3,2.6-0.6c0,0,0,0,0,0l0,0c0.7-0.2,1.5-0.3,2.2-0.4c0.4,0,0.7,0,1.1,0
		c0.2,0,0.5,0.1,0.7,0.2c-0.4,0.2-0.8,0.5-1.1,0.8c-0.4,0.4-0.7,0.9-1,1.4c-0.2,0.5-0.5,0.9-0.9,1.3c-0.4,0.4-0.8,0.7-1.2,1l0,0
		c-0.1,0-0.1,0.1-0.1,0.2c0,0.1,0.1,0.1,0.2,0.1l0,0c0.8-0.2,1.7-0.2,2.5,0c0.8,0.2,1.5,0.7,1.8,1.5c0.4,0.7,0.5,1.6,0.4,2.5
		c0,0.3-0.1,0.5-0.1,0.8c0-0.2-0.1-0.3-0.1-0.4c-0.3-0.8-0.8-1.4-1.5-1.8c-0.7-0.4-1.5-0.4-2.2-0.3c-0.7,0.1-1.4,0.5-2,1l0,0
		c-0.1,0.1-0.1,0.1,0,0.2c0,0.1,0.1,0.1,0.2,0c0.5-0.5,1.2-0.8,1.8-0.9c0.7-0.1,1.4,0.1,1.9,0.4c0.3,0.2,0.5,0.4,0.7,0.6
		c-0.3-0.1-0.6-0.1-0.8-0.1c-0.5,0-1.1,0-1.6,0.2c-1,0.3-2,0.9-2.7,1.6c0,0-0.1,0.1,0,0.2c0,0.1,0.1,0.1,0.2,0
		c0.8-0.7,1.7-1.2,2.6-1.4c0.5-0.1,1-0.1,1.5-0.1c0.4,0,0.8,0.1,1.2,0.2c0.1,0.1,0.1,0.2,0.2,0.3c0.1,0.2,0.1,0.4,0.2,0.6
		c-0.2-0.1-0.4-0.1-0.6-0.2c-0.3-0.1-0.7-0.1-1-0.1c-0.7,0-1.3,0.2-2,0.4c0,0,0,0,0,0c-0.1,0-0.1,0.1-0.1,0.2c0,0.1,0.1,0.1,0.2,0.1
		c0.6-0.2,1.2-0.3,1.8-0.2c0.3,0,0.6,0.1,0.9,0.2c0.3,0.1,0.6,0.2,0.8,0.4l0,0c0,0,0,0,0,0c0,0,0,0,0,0c0,0.1,0,0.3,0,0.5
		c-2.3-0.5-4.6-0.5-6.9,0c-2.3,0.5-4.6,1.5-6.7,2.5l0,0c0,0,0,0,0,0c-0.2,0.1-0.3,0.4-0.2,0.6c0.1,0.2,0.3,0.3,0.4,0.3
		c0,0,0,0.1,0.1,0.1c0,0,0.1,0,0.1,0c0.1,0,0.1,0.1,0.1,0.2c0.1,0.1,0.1,0.3,0.1,0.4c0,0.3-0.2,0.6-0.4,0.7C35,40.9,34.7,41,34.4,41
		c-0.3,0-0.6,0-0.8-0.1c-0.5-0.2-0.8-0.7-0.9-1.3c-0.1-0.5,0.1-1.1,0.5-1.6c0.4-0.5,0.8-0.9,1.4-1.2c0.5-0.4,1.1-0.7,1.7-0.9
		c1.2-0.5,2.4-0.8,3.7-0.7l0,0c0,0,0,0,0,0c0.1,0,0.2-0.1,0.2-0.2c0-0.1,0-0.1-0.1-0.2c-0.2-0.4-0.4-0.9-0.5-1.3
		c-0.1-0.5,0-0.9,0.1-1.3c0.3-0.9,1-1.5,1.7-2.2c0.4-0.3,0.8-0.6,1.2-0.8c0.5-0.2,0.9-0.5,1.3-0.8c0.8-0.7,1.4-1.5,1.8-2.5v0
		c0-0.1,0-0.1-0.1-0.2c-0.1,0-0.1,0-0.2,0.1l0,0c-0.4,0.9-1,1.7-1.8,2.3c-0.4,0.3-0.8,0.5-1.3,0.7c-0.5,0.2-1,0.4-1.4,0.6
		c-0.9,0.5-1.7,1.4-2,2.5c-0.2,0.6-0.1,1.2,0,1.7c0.1,0.4,0.4,0.8,0.6,1.1c-0.5,0-1.1,0-1.6,0.1c-0.6,0.1-1.3,0.3-1.9,0.5
		c-0.6,0.2-1.2,0.5-1.8,0.8c-0.6,0.3-1.2,0.7-1.6,1.3c-0.2,0.3-0.4,0.6-0.6,1C32,38.7,32,38.9,32,39c0,0,0,0-0.1,0
		c-0.2-0.2-0.4-0.3-0.6-0.4c-0.2-0.1-0.4-0.2-0.7-0.3c-0.2-0.1-0.5-0.1-0.7-0.1c0,0,0,0,0,0c0,0,0,0,0,0c-0.2,0-0.4,0-0.7,0.1
		c-0.2,0.1-0.5,0.1-0.7,0.3c-0.2,0.1-0.4,0.2-0.6,0.4l0,0c0,0,0,0,0,0c0,0,0,0,0,0c0-0.1-0.1-0.3-0.1-0.4c-0.1-0.4-0.3-0.7-0.6-1
		c-0.5-0.6-1-1-1.6-1.3c-0.6-0.3-1.2-0.6-1.8-0.8c-0.6-0.2-1.3-0.4-1.9-0.5c-0.5-0.1-1.1-0.1-1.6-0.1c0.3-0.3,0.5-0.7,0.6-1.1
		c0.2-0.5,0.2-1.2,0-1.7c-0.3-1.1-1.1-2-2-2.5c-0.5-0.3-0.9-0.5-1.4-0.6c-0.5-0.2-0.9-0.4-1.3-0.7c-0.8-0.6-1.4-1.4-1.8-2.3l0,0l0,0
		c0-0.1-0.1-0.1-0.2-0.1c-0.1,0-0.1,0.1-0.1,0.2c0.4,1,1,1.8,1.8,2.5c0.4,0.3,0.8,0.6,1.3,0.8c0.4,0.2,0.8,0.5,1.2,0.8
		c0.7,0.7,1.4,1.3,1.7,2.2c0.1,0.4,0.2,0.9,0.1,1.3c-0.1,0.4-0.2,0.9-0.5,1.3c-0.1,0-0.1,0.1-0.1,0.2c0,0.1,0.1,0.2,0.2,0.2l0,0
		c1.2-0.1,2.5,0.2,3.7,0.7c0.6,0.3,1.1,0.6,1.7,0.9c0.5,0.4,1,0.7,1.4,1.2c0.4,0.5,0.6,1,0.5,1.6c-0.1,0.5-0.4,1-0.9,1.3
		C26.2,41,25.9,41,25.6,41c-0.3,0-0.6-0.1-0.8-0.2c-0.3-0.1-0.4-0.4-0.4-0.7c0-0.1,0-0.3,0.1-0.4c0-0.1,0.1-0.1,0.1-0.2
		c0,0,0.1-0.1,0.1,0c0,0,0-0.1,0.1-0.1c0.1,0,0.3-0.1,0.3-0.3c0.1-0.2,0-0.5-0.2-0.6v0c-2.1-1-4.3-2-6.7-2.5c-2.3-0.5-4.6-0.5-6.8,0
		c0-0.1,0-0.3,0-0.4c0,0,0.1,0,0.1,0l0,0c0.2-0.1,0.5-0.3,0.8-0.4c0.3-0.1,0.6-0.2,0.9-0.2c0.6-0.1,1.2,0,1.8,0.2l0,0
		c0.1,0,0.2,0,0.2-0.1c0-0.1,0-0.2-0.1-0.2c-0.6-0.2-1.3-0.4-2-0.4c-0.3,0-0.7,0-1,0.1c-0.2,0-0.4,0.1-0.6,0.2
		c0-0.2,0.1-0.4,0.2-0.6c0-0.1,0.1-0.2,0.2-0.3c0.4-0.1,0.8-0.2,1.2-0.2c0.5,0,1,0,1.5,0.1c1,0.2,1.9,0.7,2.6,1.4c0,0,0.1,0,0.2,0
		c0-0.1,0-0.1,0-0.2c-0.8-0.8-1.7-1.3-2.7-1.6c-0.5-0.1-1.1-0.2-1.6-0.2c-0.3,0-0.6,0-0.8,0.1c0.2-0.2,0.4-0.4,0.7-0.6
		c0.5-0.4,1.2-0.5,1.9-0.4c0.7,0.1,1.3,0.4,1.8,0.9c0.1,0,0.1,0,0.2,0c0-0.1,0-0.1,0-0.2l0,0c-0.5-0.5-1.2-0.9-2-1
		c-0.7-0.1-1.5-0.1-2.2,0.3c-0.7,0.3-1.3,1-1.5,1.8C11,34.1,10.9,34.3,10.9,34.6z M12.6,55.6C12.6,55.5,12.6,55.5,12.6,55.6
		c0.3,0,0.5,0,0.7,0c0.7-0.1,1.2-0.5,1.6-0.9c0.4-0.5,0.7-1,0.9-1.6c0.4-1.2,0.3-2.5-0.4-3.6c-0.2-0.3-0.3-0.5-0.6-0.7
		c-0.2-0.2-0.5-0.4-0.8-0.5c-0.5-0.3-1.1-0.4-1.8-0.3c-0.3,0-0.6,0.1-0.9,0.3c-0.1,0.1-0.3,0.2-0.4,0.3c-0.1,0.1-0.2,0.2-0.3,0.3
		c-0.3,0.3-0.6,0.5-1,0.7c-0.1,0-0.1,0-0.2,0c-0.4,0-0.8-0.3-1-0.6c0,0,0-0.1,0-0.1c0.3-0.3,0.7-0.5,1-0.8c0.4-0.2,0.7-0.5,1.1-0.7
		c0.4-0.2,0.8-0.3,1.3-0.4c0.4-0.1,0.9-0.1,1.3-0.1h0c0,0,0,0,0,0c0.1,0,0.2-0.1,0.2-0.2c0-0.1-0.1-0.2-0.2-0.2
		c-0.5,0-0.9,0.1-1.4,0.1c-0.5,0.1-0.9,0.2-1.4,0.3c-0.4,0.1-0.9,0.3-1.3,0.6c-0.3,0.2-0.6,0.5-0.9,0.8c-0.1-0.5-0.1-0.9,0-1.4
		c0.5-0.3,1-0.6,1.5-0.9c0.6-0.3,1.2-0.5,1.8-0.6c0.6-0.1,1.2-0.2,1.9-0.2c0.6,0,1.3,0.1,1.9,0.3l0,0l0,0c0.1,0,0.1,0,0.1-0.1
		c0-0.1,0-0.1-0.1-0.1C15,45.1,14.3,45,13.7,45c-0.6,0-1.3,0-1.9,0.1c-1.1,0.2-2.2,0.5-3.1,1.2c0,0,0,0,0-0.1
		c0.2-0.6,0.5-1.1,0.9-1.5c0.6-0.3,1.2-0.5,1.8-0.6c0.7-0.2,1.3-0.3,2-0.2c0.7,0,1.4,0.1,2,0.3c0.7,0.2,1.3,0.5,1.9,0.8l0,0
		c0.1,0,0.1,0,0.2-0.1c0-0.1,0-0.1-0.1-0.2c-0.6-0.3-1.3-0.6-2-0.8c-0.7-0.2-1.4-0.3-2.1-0.4c-0.7,0-1.4,0-2.1,0.1
		c-0.2,0-0.5,0.1-0.7,0.2c0.6-0.4,1.2-0.8,1.9-1.1c1.2-0.2,2.5-0.2,3.7,0c0.7,0.1,1.4,0.3,2,0.6c0.6,0.3,1.3,0.6,1.8,1c0,0,0,0,0,0
		c0.1,0,0.1,0,0.2,0c0-0.1,0-0.1,0-0.2c-0.6-0.4-1.2-0.7-1.9-1c-0.7-0.3-1.3-0.5-2-0.7c-0.7-0.2-1.4-0.3-2.1-0.3c0,0,0,0,0,0
		c1.3-0.3,2.7-0.3,4-0.1c0.9,0.2,1.7,0.5,2.5,1c0.8,0.5,1.4,1.1,1.9,1.8c1,1.5,1.4,3.4,1.2,5.3c-0.2,1.9-1,3.7-2.2,5.1
		c-1.3,1.3-3.1,2.2-4.9,2.3c-0.9,0.1-1.8-0.1-2.6-0.6c-0.4-0.2-0.8-0.5-1-0.9C12.7,55.9,12.6,55.7,12.6,55.6z M50.2,49.5
		c-0.1,0-0.1,0-0.2,0c-0.4-0.2-0.7-0.4-1-0.7c-0.1-0.1-0.2-0.2-0.3-0.3c-0.1-0.1-0.3-0.2-0.4-0.3c-0.3-0.1-0.6-0.2-0.9-0.3
		c-0.6-0.1-1.2,0.1-1.8,0.3c-0.3,0.1-0.5,0.3-0.8,0.5c-0.2,0.2-0.4,0.5-0.6,0.7c-0.6,1.1-0.8,2.4-0.4,3.6c0.2,0.6,0.5,1.1,0.9,1.6
		c0.4,0.5,1,0.8,1.6,0.9c0.2,0,0.5,0,0.7,0c0,0,0,0,0,0.1c0,0.1-0.1,0.3-0.2,0.5c-0.3,0.4-0.6,0.6-1,0.9c-0.8,0.5-1.7,0.7-2.6,0.6
		c-1.8-0.1-3.6-0.9-4.9-2.3c-1.3-1.4-2-3.2-2.2-5.1c-0.2-1.9,0.2-3.8,1.2-5.3c0.5-0.7,1.2-1.4,1.9-1.8c0.8-0.5,1.6-0.8,2.5-1
		c1.3-0.3,2.7-0.3,4,0.1c0,0,0,0,0,0c-0.7,0-1.4,0.1-2.1,0.3c-0.7,0.2-1.4,0.4-2,0.7c-0.7,0.3-1.3,0.6-1.9,1c0,0,0,0,0,0
		c-0.1,0-0.1,0.1,0,0.2c0,0.1,0.1,0.1,0.2,0c0.6-0.4,1.2-0.7,1.8-1c0.6-0.3,1.3-0.5,2-0.6c1.2-0.2,2.5-0.2,3.7,0
		c0.6,0.3,1.3,0.6,1.9,1.1c-0.2-0.1-0.5-0.1-0.7-0.2c-0.7-0.1-1.4-0.1-2.1-0.1c-0.7,0.1-1.4,0.2-2.1,0.4c-0.7,0.2-1.3,0.5-2,0.8
		c0,0,0,0,0,0c-0.1,0-0.1,0.1-0.1,0.2c0,0.1,0.1,0.1,0.2,0.1c0.6-0.3,1.2-0.6,1.9-0.8c0.7-0.2,1.3-0.3,2-0.3c0.7,0,1.4,0.1,2,0.2
		c0.6,0.1,1.2,0.4,1.8,0.6c0.4,0.4,0.7,0.9,0.9,1.5c0,0,0,0,0,0.1c-0.9-0.6-2-1-3.1-1.2c-0.6-0.1-1.3-0.1-1.9-0.1
		c-0.6,0-1.3,0.1-1.9,0.3l0,0c-0.1,0-0.1,0.1-0.1,0.1c0,0.1,0.1,0.1,0.1,0.1l0,0c0.6-0.2,1.2-0.2,1.9-0.3c0.6,0,1.3,0.1,1.9,0.2
		c0.6,0.1,1.2,0.3,1.8,0.6c0.5,0.2,1,0.5,1.5,0.9c0.1,0.5,0.1,1,0,1.4c-0.2-0.3-0.5-0.6-0.9-0.8c-0.4-0.3-0.8-0.4-1.3-0.6
		c-0.5-0.1-0.9-0.2-1.4-0.3c-0.5-0.1-0.9-0.1-1.4-0.1c0,0,0,0,0,0c-0.1,0-0.1,0.1-0.1,0.2c0,0.1,0.1,0.2,0.2,0.1h0
		c0.4,0,0.9,0,1.3,0.1c0.4,0.1,0.9,0.2,1.3,0.4c0.4,0.2,0.8,0.4,1.1,0.7c0.3,0.2,0.7,0.5,1,0.8c0,0,0,0.1,0,0.1
		C51,49.2,50.6,49.5,50.2,49.5z M56.2,41.3c-0.7-1-1.6-1.7-2.6-2.2c-1-0.5-2.1-0.8-3.2-1c-2.2-0.3-4.5,0-6.6,0.5
		c-2.1,0.6-4.2,1.5-6.1,2.6c0,0,0,0.1,0,0.1c0,0,0.1,0.1,0.1,0c1.9-1.1,4-1.9,6.1-2.4c2.1-0.5,4.3-0.7,6.4-0.3
		c2.1,0.4,4.1,1.4,5.4,3.1c0.6,0.9,1,1.9,1.2,2.9c0.1,0.5,0.1,1.1,0.1,1.6c-0.1,0.5-0.2,1-0.4,1.3c0,0,0,0,0,0
		c-0.1,0.1-0.1,0.3-0.1,0.4c0,0,0,0,0,0.1c-0.3,0.4-0.7,0.8-1.2,1c-0.1,0.1-0.2,0.1-0.3,0.2l-0.1,0l-0.1,0l-0.2,0.1
		c-0.3,0.1-0.5,0.2-0.8,0.3c-0.9,0.3-1.9,0.3-2.8,0c0.1,0,0.1-0.1,0.2-0.1c0.2-0.2,0.4-0.4,0.5-0.6c0.3-0.5,0.4-1,0.4-1.5
		c0-0.2,0-0.5,0-0.7c0-0.1,0-0.1,0-0.2c0-0.2-0.1-0.4-0.2-0.6c-0.3-1-0.9-1.8-1.7-2.5c-0.8-0.6-1.6-1.2-2.5-1.6
		c-1.8-0.8-3.8-1.1-5.8-0.7c-1.1,0.2-2.2,0.7-3.2,1.3c-0.8,0.5-1.6,1-2.3,1.6c-0.9,0.7-1.6,1.6-2.3,2.5c-0.7,0.9-1.2,1.9-1.7,3
		c-0.4,1.1-0.7,2.2-0.7,3.3c0,0,0,0.1,0.1,0.1c0,0,0.1,0,0.1-0.1v0c0.1-1.1,0.5-2.2,0.9-3.2c0.5-1,1-2,1.7-2.8
		c0.6-0.8,1.3-1.5,2.1-2.1c-0.4,0.7-0.7,1.5-0.8,2.4c-0.2,1-0.2,2.1,0,3.1c0.2,1,0.5,2,0.9,2.9c0.4,0.9,1,1.8,1.7,2.5
		c1.4,1.4,3.3,2.2,5.3,2.3c1,0.1,2-0.2,2.8-0.6c0.4-0.2,0.8-0.5,1.1-1c0.1-0.1,0.2-0.2,0.2-0.4c0.1-0.1,0.1-0.3,0.1-0.5
		c0,0,0,0,0-0.1c0.1,0,0.2-0.1,0.3-0.1c0.1,0,0.2,0,0.3,0c0.1,0,0.2,0.2,0.2,0.4c0,0.2-0.1,0.5-0.2,0.7c-0.2,0.4-0.6,0.9-1.1,1.2
		c-0.4,0.3-0.9,0.6-1.4,0.8c-1,0.4-2.2,0.4-3.3,0.3c-2.2-0.4-4.4-1.4-5.8-3.2h0l0,0c-0.1-0.1-0.2-0.1-0.2,0l0,0
		c-0.8,0.9-1.9,1.6-3,2c-1.1,0.4-2.3,0.6-3.5,0.6c-1.2,0-2.4-0.2-3.5-0.6c-1.1-0.4-2.1-1.1-3-2l0,0l0,0c-0.1-0.1-0.2,0-0.2,0h0
		c-1.5,1.8-3.6,2.8-5.8,3.2c-1.1,0.2-2.2,0.1-3.3-0.3c-0.5-0.2-1-0.5-1.4-0.8c-0.4-0.3-0.8-0.7-1.1-1.2c-0.1-0.2-0.2-0.5-0.2-0.7
		c0-0.2,0.1-0.4,0.2-0.4c0.1,0,0.2,0,0.3,0c0.1,0,0.2,0.1,0.3,0.1c0,0,0,0,0,0.1c0,0.2,0,0.3,0.1,0.5c0.1,0.1,0.1,0.2,0.2,0.4
		c0.3,0.4,0.7,0.7,1.1,1c0.9,0.5,1.9,0.7,2.8,0.6c1.9-0.1,3.8-0.9,5.3-2.3c0.7-0.7,1.3-1.6,1.7-2.5c0.4-0.9,0.7-1.9,0.9-2.9
		c0.2-1,0.2-2,0-3.1c-0.1-0.8-0.4-1.6-0.8-2.4c0.7,0.7,1.4,1.4,2.1,2.1c0.7,0.9,1.3,1.8,1.7,2.8c0.4,1,0.8,2.1,0.9,3.2v0
		c0,0,0,0.1,0.1,0.1c0,0,0.1,0,0.1-0.1c0-1.2-0.3-2.3-0.7-3.3c-0.4-1.1-1-2.1-1.7-3c-0.7-0.9-1.5-1.8-2.3-2.5
		c-0.7-0.6-1.5-1.2-2.3-1.6c-1-0.7-2.1-1.1-3.2-1.3c-2-0.4-4-0.1-5.8,0.7c-0.9,0.4-1.7,0.9-2.5,1.6C9.2,44.2,8.6,45,8.3,46
		c-0.1,0.2-0.1,0.4-0.2,0.6c0,0,0,0.1,0,0.2c0,0.2-0.1,0.5,0,0.7c0,0.5,0.1,1,0.4,1.5c0.1,0.2,0.3,0.4,0.5,0.6
		c0.1,0,0.1,0.1,0.2,0.1c-0.9,0.3-1.9,0.2-2.8,0c-0.3-0.1-0.5-0.2-0.8-0.3l-0.2-0.1l-0.1,0l-0.1,0c-0.1,0-0.2-0.1-0.3-0.2
		c-0.4-0.3-0.8-0.6-1.2-1c-0.1-0.2-0.2-0.3-0.4-0.5c-0.1-0.3-0.2-0.6-0.2-1c-0.1-0.5,0-1,0.1-1.6c0.2-1,0.6-2.1,1.2-2.9
		c1.2-1.8,3.3-2.8,5.4-3.1c2.1-0.4,4.3-0.2,6.4,0.3c2.1,0.5,4.2,1.3,6.1,2.4c0,0,0.1,0,0.1,0c0,0,0-0.1,0-0.1
		c-1.9-1.2-3.9-2.1-6.1-2.6c-2.1-0.6-4.4-0.9-6.6-0.5c-1.1,0.2-2.2,0.5-3.2,1c-1,0.5-1.9,1.3-2.6,2.2c-0.5,0.7-0.9,1.5-1.2,2.3
		c0.1-0.7,0.2-1.4,0.5-2.1c0.4-1,1.2-1.9,2-2.6c1.7-1.4,3.8-2.4,6-2.8c0,0,0,0,0.1,0c0,0,0.1,0,0.1-0.1c2.3-0.4,4.6-0.3,6.8,0.3
		c1.1,0.3,2.2,0.7,3.3,1.2c0.9,0.4,1.8,0.8,2.6,1.3c0,0.1,0,0.1,0,0.1c0,0.1,0,0.2,0,0.3c0,0.2,0,0.4,0.1,0.6
		c0.1,0.4,0.3,0.7,0.6,0.9c0.1,0.1,0.3,0.2,0.4,0.3c0,0,0,0,0,0l0,0c0.3,0.3,0.7,0.6,1,1c0.3,0.3,0.6,0.7,0.9,1.1
		c0.3,0.4,0.5,0.8,0.7,1.2c0.2,0.4,0.4,0.9,0.5,1.4v0c0,0,0,0,0,0c0,0.1,0.1,0.1,0.2,0.1c0.1,0,0.1-0.1,0.1-0.2
		c-0.2-0.5-0.3-1-0.5-1.4c-0.2-0.5-0.4-0.9-0.6-1.4c-0.2-0.4-0.5-0.9-0.9-1.2c-0.1-0.1-0.2-0.2-0.3-0.3c0.2,0,0.4,0,0.6-0.1
		c0.2-0.1,0.4-0.2,0.6-0.3c0.1,0.1,0.2,0.3,0.4,0.4c0.2,0.3,0.4,0.5,0.5,0.8c0.1,0.3,0.3,0.6,0.4,0.9c0.1,0.3,0.2,0.6,0.2,1v0
		c0,0.1,0.1,0.1,0.1,0.1c0.1,0,0.1-0.1,0.1-0.1c-0.1-0.7-0.3-1.3-0.5-2c-0.1-0.3-0.3-0.6-0.5-0.9c-0.1-0.2-0.2-0.3-0.4-0.5
		c0.2-0.3,0.4-0.7,0.5-1.1c0-0.1,0-0.2,0-0.3l0,0c0.1,0.2,0.2,0.4,0.4,0.6c0.1,0.3,0.3,0.5,0.4,0.8c0.1,0.3,0.2,0.6,0.3,0.9
		c0.1,0.3,0.1,0.6,0.1,0.9v0c0,0,0,0,0,0c0,0.1,0.1,0.1,0.1,0.1c0.1,0,0.1-0.1,0.1-0.1c0-0.6-0.2-1.3-0.3-1.9
		c-0.1-0.3-0.2-0.6-0.3-0.9c-0.1-0.2-0.3-0.4-0.5-0.6c0.1-0.1,0.2-0.2,0.4-0.2c0.3-0.1,0.6-0.2,0.9-0.2c0,0.1,0,0.2,0,0.4
		c0,0.2,0.1,0.4,0.1,0.6c0.1,0.4,0.1,0.8,0.1,1.2c0,0.1,0,0.1,0.1,0.1c0.1,0,0.1-0.1,0.1-0.1c0-0.4,0-0.8,0.1-1.2
		c0-0.2,0.1-0.4,0.1-0.6c0-0.1,0-0.2,0-0.4c0.3,0,0.6,0.1,0.9,0.2c0.1,0,0.2,0.1,0.4,0.2c-0.2,0.2-0.3,0.4-0.5,0.6
		c-0.1,0.3-0.3,0.6-0.3,0.9c-0.2,0.6-0.3,1.2-0.3,1.9c0,0,0,0,0,0c0,0.1,0,0.1,0.1,0.1c0.1,0,0.1,0,0.1-0.1v0c0-0.3,0.1-0.6,0.1-0.9
		c0.1-0.3,0.2-0.6,0.3-0.9c0.1-0.3,0.3-0.5,0.4-0.8c0.1-0.2,0.2-0.4,0.4-0.6c0,0.1,0.1,0.1,0.1,0.2c0,0.1,0,0.1,0,0.2
		c0,0.4,0.2,0.7,0.4,1c-0.2,0.2-0.3,0.3-0.4,0.5c-0.2,0.3-0.3,0.6-0.5,0.9c-0.2,0.6-0.4,1.3-0.5,2v0c0,0.1,0,0.1,0.1,0.1
		c0.1,0,0.1,0,0.1-0.1c0-0.3,0.1-0.6,0.2-1c0.1-0.3,0.2-0.6,0.4-0.9c0.1-0.3,0.3-0.6,0.5-0.8c0.1-0.2,0.3-0.3,0.4-0.5
		c0.2,0.2,0.4,0.3,0.7,0.4c0.2,0.1,0.3,0.1,0.5,0.1c-0.1,0.1-0.2,0.2-0.3,0.3c-0.3,0.4-0.6,0.8-0.9,1.2c-0.2,0.4-0.5,0.9-0.6,1.4
		c-0.2,0.5-0.4,0.9-0.5,1.4c0,0,0,0,0,0c0,0.1,0,0.2,0.1,0.2c0.1,0,0.2,0,0.2-0.1v0c0.1-0.5,0.3-0.9,0.5-1.4
		c0.2-0.4,0.4-0.9,0.7-1.2c0.3-0.4,0.6-0.7,0.9-1.1c0.3-0.3,0.6-0.6,1-0.9c0.2-0.1,0.4-0.2,0.6-0.3c0.3-0.2,0.5-0.5,0.6-0.9
		c0.1-0.2,0.1-0.4,0.1-0.6c0-0.1,0-0.2,0-0.3c0-0.1,0-0.1,0-0.2c0.8-0.4,1.7-0.9,2.6-1.3c1.1-0.5,2.1-0.9,3.3-1.2
		c2.2-0.6,4.6-0.7,6.9-0.3c0,0,0,0,0,0l0,0c0,0,0,0,0.1,0c0,0,0,0,0.1,0c2.2,0.5,4.3,1.4,5.9,2.8c0.8,0.7,1.6,1.6,2,2.6
		c0.2,0.5,0.4,1,0.5,1.5C57,42.6,56.7,41.9,56.2,41.3z M29,55.4c-0.4-0.4-0.7-0.8-1.1-1.2c-0.4-0.4-0.7-0.8-1-1.3
		c-0.3-0.4-0.6-0.9-0.8-1.4c-0.2-0.5-0.4-1-0.5-1.6c0-0.1-0.1-0.1-0.1-0.1c-0.1,0-0.1,0.1-0.1,0.1c0.2,1.1,0.6,2.2,1.1,3.2
		c0.3,0.5,0.6,1,0.9,1.4c0.4,0.4,0.7,0.8,1.2,1.1c0.1,0,0.2,0,0.2,0C29.1,55.7,29.1,55.5,29,55.4L29,55.4z M40.6,55.1
		c-0.5-0.5-0.9-1-1.3-1.6c-0.2-0.3-0.4-0.6-0.5-0.9c-0.1-0.3-0.3-0.6-0.4-0.9c-0.2-0.6-0.3-1.3-0.1-1.9c0.2-0.6,0.6-1.1,1.2-1.3
		c0.3-0.1,0.6-0.1,0.9-0.1c0.1,0,0.1,0,0.2,0.1c0,0,0.1,0,0.1,0.1l0.1,0.1c0.1,0.1,0.2,0.2,0.3,0.3c0.2,0.3,0.3,0.6,0.2,0.9
		c0,0.2-0.1,0.3-0.2,0.5c-0.1,0.1-0.2,0.3-0.3,0.2c-0.1,0-0.2,0-0.3,0.1c-0.1,0.1-0.1,0.3,0,0.5c0.1,0.1,0.3,0.2,0.5,0l0.1-0.1
		c0.2-0.2,0.3-0.4,0.4-0.6c0.1-0.2,0.1-0.4,0.1-0.6c0.1-0.4,0-0.8-0.3-1.1c-0.1-0.2-0.2-0.3-0.4-0.4L41,48.3c0,0-0.1-0.1-0.1-0.1
		c-0.1,0-0.2-0.1-0.3-0.1c-0.4-0.1-0.8-0.1-1.2,0c-0.7,0.2-1.4,0.8-1.7,1.6c-0.3,0.8-0.2,1.6,0,2.3c0.1,0.4,0.2,0.7,0.4,1.1
		c0.2,0.3,0.3,0.7,0.6,1c0.4,0.6,1,1.2,1.6,1.6c1.2,0.8,2.6,1.3,4.1,1.3h0c0.1,0,0.2-0.1,0.2-0.2c0-0.1-0.1-0.2-0.2-0.2h0
		c-0.7,0-1.4-0.1-2-0.4C41.7,56,41.1,55.6,40.6,55.1z M28.9,56.6L28.9,56.6c-0.4-0.1-0.9-0.3-1.3-0.5c-0.4-0.2-0.8-0.4-1.2-0.7
		c-0.4-0.3-0.7-0.6-1-1c-0.3-0.4-0.6-0.7-0.9-1.2c0-0.1-0.1-0.1-0.2,0c-0.1,0-0.1,0.1,0,0.2c0.5,0.8,1.1,1.6,1.8,2.3
		c0.4,0.3,0.8,0.7,1.2,0.9c0.5,0.2,0.9,0.4,1.5,0.3c0.1,0,0.1-0.1,0.1-0.1C29,56.7,29,56.6,28.9,56.6z M29.8,55.1
		c0.1,0.1,0.3,0.1,0.4,0c0.2-0.2,0.1-0.4,0.1-0.6c0-0.2-0.1-0.4-0.1-0.6c0-0.4-0.1-0.8-0.1-1.2c0-0.1-0.1-0.1-0.1-0.1
		c-0.1,0-0.1,0-0.1,0.1c0,0.4,0,0.8-0.1,1.2c0,0.2-0.1,0.4-0.1,0.6C29.7,54.6,29.6,54.8,29.8,55.1C29.8,55,29.8,55.1,29.8,55.1z
		 M24,34.5c0.3,0.1,0.7,0.2,1.3,0.2c0.7,0,1.4-0.1,2-0.2c0.5,0.2,1.1,0.3,1.7,0.3c1.2,0,2.3-0.3,3.2-0.9c1-0.6,1.7-1.4,2.2-2.4
		c0.5-1,0.8-1.9,0.8-2.8c0-0.3,0-0.5-0.1-0.8l0.4-0.3c0.2-0.1,0.3-0.2,0.4-0.3l0.5-0.3c0,0,0.1-0.1,0-0.1l0-0.1c0,0,0,0-0.1-0.1
		c0,0-0.1,0-0.1,0l-0.7,0.5c-0.2,0.1-0.4,0.2-0.5,0.3c-0.3-0.8-0.8-1.4-1.5-1.8c-0.7-0.4-1.6-0.6-2.5-0.6c-1,0-2,0.2-3,0.5
		c-1,0.4-1.8,0.9-2.4,1.5c-0.6,0.7-0.9,1.4-0.9,2.2c0,0.6,0.2,1.1,0.7,1.5c0.4,0.4,1,0.6,1.7,0.6c1.2,0,2.4-0.3,3.4-1
		c1.1-0.7,1.6-1.4,1.6-2.2c0-0.3-0.1-0.5-0.4-0.8c-0.3-0.3-0.6-0.4-1-0.4c-0.8,0-1.7,0.3-2.6,0.9c-0.9,0.6-1.6,1.4-2.2,2.3
		c0,0,0,0.1,0,0.1l0,0c0,0,0.1,0,0.1,0c0,0,0.1,0,0.1,0c0.6-1,1.4-1.8,2.2-2.3c0.8-0.5,1.6-0.8,2.3-0.8c0.4,0,0.6,0.1,0.8,0.3
		c0.2,0.2,0.3,0.4,0.3,0.6c0,0.7-0.5,1.3-1.5,2c-1,0.7-2.1,1-3.3,1c-0.6,0-1.1-0.2-1.5-0.5c-0.4-0.3-0.5-0.6-0.5-1
		c0-0.5,0.3-1.2,1-1.9c0.6-0.8,1.4-1.4,2.3-1.8c0.9-0.4,1.8-0.6,2.7-0.6c0.9,0,1.6,0.2,2.3,0.6c0.7,0.4,1.1,1,1.4,1.7
		c-1,0.7-2.1,1.8-3.3,3.4c-0.6,0.8-1,1.2-1.2,1.5c-0.2,0.2-0.5,0.5-0.8,0.7c-0.3,0.2-0.6,0.4-0.8,0.5c-0.2,0.1-0.5,0.2-0.8,0.3
		c-0.3,0.1-0.4,0.1-0.4,0.1l-1-0.3c-0.7-0.2-1.3-0.3-1.9-0.3c-0.3,0-1.1,0-1.1,0.5C23.5,34.2,23.7,34.3,24,34.5z M29,33.9
		c0.3-0.1,0.7-0.3,1-0.5c0.3-0.2,0.6-0.4,0.9-0.6c0.2-0.2,0.5-0.4,0.6-0.6c0.2-0.2,0.5-0.6,0.8-1.1c0.4-0.7,0.8-1.2,1-1.5
		c0.3-0.4,0.6-0.7,0.8-1c0.2-0.2,0.5-0.4,0.7-0.6c0.1,0.2,0.1,0.4,0.1,0.6c0,0.8-0.3,1.8-0.8,2.7c-0.5,0.9-1.2,1.7-2.1,2.3
		c-0.9,0.6-1.8,0.9-2.7,0.9c-0.1,0-0.1,0-0.2,0c-0.1,0-0.1,0-0.2,0c-0.1,0-0.1,0-0.2,0l-0.2,0l-0.4-0.1C28.3,34.2,28.6,34.1,29,33.9
		z M24.5,33.7c0.7,0,1.5,0.2,2.3,0.5c-0.4,0.1-0.9,0.1-1.5,0.1c-0.6,0-1-0.1-1.2-0.2c-0.3-0.1-0.3-0.2-0.3-0.2
		C23.8,33.8,24.2,33.7,24.5,33.7z"/>
</g>
</svg>
