<?xml version="1.0" encoding="utf-8"?>
<!-- Generator: Adobe Illustrator 21.0.0, SVG Export Plug-In . SVG Version: 6.00 Build 0)  -->
<svg version="1.1" id="Слой_1" xmlns="http://www.w3.org/2000/svg" xmlns:xlink="http://www.w3.org/1999/xlink" x="0px" y="0px"
	 viewBox="0 0 425 284" style="enable-background:new 0 0 425 284;" xml:space="preserve">
<style type="text/css">
	.st0{fill:#fff;}
</style>
<g>
	<path class="st0" d="M152.8,273.5v-1.9c0-1,0-1.8-0.1-2.4c-0.1-0.6-0.2-1-0.4-1.4c-0.2-0.3-0.5-0.5-0.9-0.6
		c-0.4-0.1-0.9-0.2-1.6-0.2v-0.8h8.9v0.8c-0.7,0-1.2,0.1-1.6,0.2c-0.4,0.1-0.7,0.3-0.9,0.6c-0.2,0.3-0.4,0.8-0.4,1.4
		c-0.1,0.6-0.1,1.4-0.1,2.4v6.2c0,1,0,1.7,0.1,2.3c0.1,0.6,0.2,1.1,0.4,1.4c0.2,0.3,0.5,0.6,0.9,0.7c0.4,0.1,0.9,0.2,1.6,0.2v0.8
		h-8.9v-0.8c0.7,0,1.2-0.1,1.6-0.2c0.4-0.1,0.7-0.3,0.9-0.7c0.2-0.3,0.4-0.8,0.4-1.4c0.1-0.6,0.1-1.4,0.1-2.3V275H144v2.9
		c0,1,0,1.7,0.1,2.3c0.1,0.6,0.2,1.1,0.4,1.4c0.2,0.3,0.5,0.6,0.9,0.7c0.4,0.1,0.9,0.2,1.6,0.2v0.8h-8.9v-0.8c0.6,0,1.2-0.1,1.6-0.2
		c0.4-0.1,0.7-0.3,0.9-0.7c0.2-0.3,0.4-0.8,0.4-1.4c0.1-0.6,0.1-1.4,0.1-2.3v-6.2c0-1,0-1.8-0.1-2.4c-0.1-0.6-0.2-1-0.4-1.4
		c-0.2-0.3-0.5-0.5-0.9-0.6c-0.4-0.1-0.9-0.2-1.6-0.2v-0.8h8.9v0.8c-0.7,0-1.2,0.1-1.6,0.2c-0.4,0.1-0.7,0.3-0.9,0.6
		c-0.2,0.3-0.4,0.8-0.4,1.4c-0.1,0.6-0.1,1.4-0.1,2.4v1.9H152.8z"/>
	<path class="st0" d="M201.1,274.7c0,1.2-0.3,2.4-0.8,3.5c-0.5,1.1-1.2,2.1-2,2.9c-0.9,0.8-1.9,1.5-3,2c-1.2,0.5-2.4,0.7-3.7,0.7
		c-1.3,0-2.5-0.2-3.7-0.7c-1.2-0.5-2.2-1.1-3-2c-0.9-0.8-1.5-1.8-2-2.9c-0.5-1.1-0.8-2.3-0.8-3.5c0-1.2,0.3-2.4,0.8-3.5
		c0.5-1.1,1.2-2.1,2-2.9c0.9-0.8,1.9-1.5,3-2c1.2-0.5,2.4-0.7,3.7-0.7c1.3,0,2.5,0.2,3.7,0.7c1.2,0.5,2.2,1.1,3,2
		c0.9,0.8,1.5,1.8,2,2.9C200.9,272.3,201.1,273.5,201.1,274.7z M197.9,274.7c0-0.8-0.1-1.7-0.3-2.6c-0.2-0.9-0.6-1.7-1.1-2.5
		c-0.5-0.7-1.2-1.4-2-1.8c-0.8-0.5-1.8-0.7-2.9-0.7c-1.2,0-2.2,0.2-2.9,0.7c-0.8,0.5-1.4,1.1-1.9,1.8c-0.5,0.7-0.9,1.6-1.1,2.5
		c-0.2,0.9-0.3,1.8-0.3,2.6c0,0.9,0.1,1.7,0.3,2.6c0.2,0.9,0.6,1.7,1.1,2.5c0.5,0.7,1.2,1.3,1.9,1.8c0.8,0.5,1.8,0.7,2.9,0.7
		c1.1,0,2.1-0.2,2.9-0.7c0.8-0.5,1.5-1.1,2-1.8c0.5-0.7,0.9-1.6,1.1-2.5C197.8,276.5,197.9,275.6,197.9,274.7z"/>
	<path class="st0" d="M229,277.9c0,1,0,1.7,0.1,2.3c0.1,0.6,0.2,1.1,0.4,1.4c0.2,0.3,0.5,0.6,0.9,0.7c0.4,0.1,0.9,0.2,1.6,0.2v0.8
		h-7.6v-0.8c0.6,0,1.2-0.1,1.6-0.2c0.4-0.1,0.7-0.3,0.9-0.7c0.2-0.3,0.4-0.8,0.4-1.4c0.1-0.6,0.1-1.4,0.1-2.3v-6.2
		c0-1,0-1.8-0.1-2.4c-0.1-0.6-0.2-1-0.4-1.4c-0.2-0.3-0.5-0.5-0.9-0.6c-0.4-0.1-0.9-0.2-1.6-0.2v-0.8h5.9l5.8,13l5.8-13h5.5v0.8
		c-0.7,0-1.2,0.1-1.6,0.2c-0.4,0.1-0.7,0.3-1,0.6c-0.2,0.3-0.4,0.8-0.5,1.4c-0.1,0.6-0.1,1.4-0.1,2.4v6.2c0,1,0,1.7,0.1,2.3
		c0.1,0.6,0.2,1.1,0.5,1.4c0.2,0.3,0.6,0.6,1,0.7c0.4,0.1,0.9,0.2,1.6,0.2v0.8h-8.9v-0.8c0.7,0,1.2-0.1,1.6-0.2
		c0.4-0.1,0.7-0.3,0.9-0.7c0.2-0.3,0.4-0.8,0.4-1.4c0.1-0.6,0.1-1.4,0.1-2.3v-7.3l-5.9,13.3h-0.5l-6.1-13.8V277.9z"/>
	<path class="st0" d="M281.9,281.6c0.5-0.1,1-0.2,1.3-0.4c0.3-0.2,0.5-0.4,0.7-0.8c0.2-0.3,0.3-0.7,0.4-1.2l0.2-0.8h0.8l-0.3,4.7
		h-14.6v-0.8c0.6,0,1.2-0.1,1.6-0.2c0.4-0.1,0.7-0.3,0.9-0.7c0.2-0.3,0.4-0.8,0.4-1.4c0.1-0.6,0.1-1.4,0.1-2.3v-6.2
		c0-1,0-1.8-0.1-2.4c-0.1-0.6-0.2-1-0.4-1.4c-0.2-0.3-0.5-0.5-0.9-0.6c-0.4-0.1-0.9-0.2-1.6-0.2v-0.8h8.6h5l0.3,4.7h-0.8l-0.2-0.8
		c-0.1-0.4-0.2-0.8-0.4-1.2c-0.1-0.3-0.4-0.6-0.7-0.8c-0.3-0.2-0.7-0.3-1.3-0.4c-0.5-0.1-1.3-0.1-2.1-0.1h-2.6v5.8h0.2
		c1,0,1.8,0,2.3-0.1c0.6-0.1,1-0.2,1.2-0.4c0.3-0.2,0.4-0.5,0.5-0.9c0.1-0.4,0.1-0.9,0.1-1.6h0.8v7.6h-0.8c0-0.6,0-1.2-0.1-1.6
		c-0.1-0.4-0.3-0.7-0.5-0.9c-0.3-0.2-0.7-0.4-1.2-0.4c-0.6-0.1-1.3-0.1-2.3-0.1h-0.2v2.3c0,1,0,1.7,0.1,2.3c0.1,0.6,0.2,1.1,0.4,1.4
		c0.2,0.3,0.5,0.5,0.9,0.6c0.4,0.1,0.9,0.2,1.6,0.2h0.5C280.7,281.8,281.4,281.7,281.9,281.6z"/>
</g>
<g>
	<path class="st0" d="M-0.4,224.8c1.4,0,2.5-0.1,3.4-0.3c0.9-0.2,1.5-0.7,2-1.4c0.5-0.7,0.8-1.8,1-3.1c0.2-1.3,0.3-3,0.3-5.1v-13.6
		c0-2.2-0.1-3.9-0.3-5.1c-0.2-1.3-0.5-2.3-1-3c-0.5-0.7-1.2-1.2-2-1.4c-0.9-0.2-2-0.3-3.4-0.3v-1.7h17.8c3.6,0,6.7,0.5,9.3,1.4
		c2.6,1,4.7,2.3,6.4,4c1.7,1.7,2.9,3.6,3.7,5.9c0.8,2.2,1.2,4.6,1.2,7.1c0,2.6-0.4,4.9-1.2,7.2c-0.8,2.2-2,4.2-3.7,5.9
		c-1.7,1.7-3.8,3-6.4,4c-2.6,1-5.7,1.4-9.3,1.4H-0.4V224.8z M31,208c0-1.7-0.2-3.4-0.5-5.2c-0.3-1.8-1-3.4-2-4.9
		c-1-1.5-2.3-2.7-4-3.7c-1.7-1-4-1.4-6.8-1.4h-5.5v24.2c0,1.4,0.1,2.5,0.2,3.3c0.1,0.9,0.3,1.5,0.7,2c0.3,0.5,0.8,0.8,1.4,0.9
		c0.6,0.1,1.5,0.2,2.5,0.2h0.7c2.8,0,5.1-0.5,6.8-1.4c1.7-1,3.1-2.2,4-3.7c1-1.5,1.6-3.1,2-4.9C30.8,211.5,31,209.7,31,208z"/>
	<path class="st0" d="M71.9,218.2c-0.5,1.2-0.9,2.3-1.1,3.1c-0.2,0.8-0.2,1.5,0.1,2c0.3,0.5,0.9,0.9,1.7,1.1
		c0.9,0.2,2.1,0.3,3.8,0.3v1.8H60.5v-1.8c1.3,0,2.3-0.1,3.2-0.3c0.8-0.2,1.5-0.5,2.1-1.1c0.6-0.5,1.1-1.3,1.6-2.3
		c0.5-1,1.1-2.2,1.8-3.8l12.4-29.1h1.2l12.4,29.1c0.7,1.6,1.3,2.9,1.8,3.8c0.5,1,1.1,1.7,1.7,2.3c0.6,0.5,1.2,0.9,2,1.1
		c0.7,0.2,1.7,0.3,2.8,0.3v1.8H84.5v-1.8c3,0,4.8-0.5,5.3-1.4c0.5-0.9,0.3-2.6-0.8-5.1l-1.7-3.9H73.5L71.9,218.2z M80.4,198.2
		l-5.6,13H86L80.4,198.2z"/>
	<path class="st0" d="M133.3,196.1c-0.2-1.3-0.5-2.3-1-3c-0.5-0.7-1.2-1.2-2-1.4c-0.9-0.2-2-0.3-3.4-0.3v-1.7h10.3l22.4,26.9v-15.3
		c0-2.2-0.1-3.9-0.3-5.1c-0.2-1.3-0.5-2.3-1-3c-0.5-0.7-1.2-1.2-2-1.4c-0.9-0.2-2-0.3-3.4-0.3v-1.7h16.4v1.7c-1.4,0-2.5,0.1-3.4,0.3
		c-0.9,0.2-1.5,0.7-2,1.4c-0.5,0.7-0.8,1.7-1,3c-0.2,1.3-0.3,3-0.3,5.1v26.6h-1.6l-24.5-29.7v16.7c0,2.1,0.1,3.8,0.3,5.1
		c0.2,1.3,0.5,2.3,1,3.1c0.5,0.7,1.1,1.2,2,1.4c0.9,0.2,2,0.3,3.4,0.3v1.7h-16.4v-1.7c1.4,0,2.5-0.1,3.4-0.3c0.9-0.2,1.5-0.7,2-1.4
		c0.5-0.7,0.8-1.8,1-3.1c0.2-1.3,0.3-3,0.3-5.1v-13.6C133.5,199.1,133.4,197.4,133.3,196.1z"/>
	<path class="st0" d="M203.7,193c-1.9,0-3.4,0.1-4.6,0.3c-1.1,0.2-2,0.5-2.6,0.9c-0.6,0.4-1.1,1-1.3,1.7c-0.3,0.7-0.6,1.5-0.8,2.6
		l-0.4,1.7h-1.7l0.6-10.5h37.4l0.6,10.5h-1.7l-0.4-1.7c-0.2-1-0.5-1.9-0.8-2.6c-0.3-0.7-0.8-1.2-1.4-1.7c-0.6-0.4-1.5-0.7-2.6-0.9
		c-1.1-0.2-2.7-0.3-4.6-0.3h-4.8v21.9c0,2.1,0.1,3.8,0.3,5.1c0.2,1.3,0.5,2.3,1,3.1c0.5,0.7,1.2,1.2,2.1,1.4c0.9,0.2,2,0.3,3.4,0.3
		v1.7h-19.4v-1.7c1.4,0,2.5-0.1,3.4-0.3c0.9-0.2,1.6-0.7,2.1-1.4c0.5-0.7,0.8-1.8,1-3.1c0.2-1.3,0.3-3,0.3-5.1V193H203.7z"/>
	<path class="st0" d="M296,208c0,2.7-0.5,5.3-1.6,7.7c-1.1,2.4-2.6,4.5-4.4,6.3c-1.8,1.8-4,3.2-6.5,4.3c-2.5,1-5.1,1.6-7.9,1.6
		c-2.8,0-5.5-0.5-7.9-1.6c-2.5-1-4.7-2.5-6.5-4.3c-1.9-1.8-3.3-3.9-4.4-6.3c-1.1-2.4-1.6-5-1.6-7.7c0-2.7,0.5-5.3,1.6-7.7
		c1.1-2.4,2.6-4.5,4.4-6.3c1.8-1.8,4-3.2,6.5-4.3c2.5-1,5.1-1.6,7.9-1.6c2.8,0,5.5,0.5,7.9,1.6c2.5,1.1,4.7,2.5,6.5,4.3
		c1.9,1.8,3.3,3.9,4.4,6.3C295.4,202.8,296,205.3,296,208z M289.1,208c0-1.8-0.2-3.7-0.7-5.7c-0.5-2-1.3-3.7-2.4-5.4
		c-1.1-1.6-2.5-2.9-4.2-4c-1.7-1-3.8-1.6-6.3-1.6c-2.5,0-4.6,0.5-6.3,1.6c-1.7,1-3.1,2.4-4.2,4c-1.1,1.6-1.9,3.4-2.4,5.4
		c-0.5,2-0.7,3.8-0.7,5.7c0,1.9,0.2,3.8,0.7,5.7c0.5,2,1.3,3.7,2.4,5.4c1.1,1.6,2.5,2.9,4.2,4c1.7,1,3.8,1.5,6.3,1.5
		c2.5,0,4.6-0.5,6.3-1.5c1.7-1,3.2-2.3,4.2-4c1.1-1.6,1.9-3.4,2.4-5.4C288.8,211.8,289.1,209.9,289.1,208z"/>
	<path class="st0" d="M330.1,196.1c-0.2-1.3-0.5-2.3-1-3c-0.5-0.7-1.1-1.2-2-1.4c-0.9-0.2-2-0.3-3.4-0.3v-1.7h10.3l22.4,26.9v-15.3
		c0-2.2-0.1-3.9-0.3-5.1c-0.2-1.3-0.5-2.3-1-3c-0.5-0.7-1.2-1.2-2-1.4c-0.9-0.2-2-0.3-3.4-0.3v-1.7h16.4v1.7c-1.4,0-2.5,0.1-3.4,0.3
		c-0.9,0.2-1.5,0.7-2,1.4c-0.5,0.7-0.8,1.7-1,3c-0.2,1.3-0.3,3-0.3,5.1v26.6H358l-24.5-29.7v16.7c0,2.1,0.1,3.8,0.3,5.1
		c0.2,1.3,0.5,2.3,1,3.1c0.5,0.7,1.1,1.2,2,1.4c0.9,0.2,2,0.3,3.4,0.3v1.7h-16.4v-1.7c1.4,0,2.5-0.1,3.4-0.3c0.9-0.2,1.5-0.7,2-1.4
		c0.5-0.7,0.8-1.8,1-3.1c0.2-1.3,0.3-3,0.3-5.1v-13.6C330.4,199.1,330.3,197.4,330.1,196.1z"/>
	<path class="st0" d="M417.6,223c1.2-0.2,2.1-0.5,2.8-0.9c0.7-0.4,1.2-1,1.5-1.7c0.3-0.7,0.6-1.5,0.8-2.6l0.4-1.7h1.7l-0.7,10.3
		h-31.5v-1.7c1.4,0,2.5-0.1,3.4-0.3c0.9-0.2,1.5-0.7,2-1.4c0.5-0.7,0.8-1.8,1-3.1c0.2-1.3,0.3-3,0.3-5.1v-13.6
		c0-2.2-0.1-3.9-0.3-5.1c-0.2-1.3-0.5-2.3-1-3c-0.5-0.7-1.2-1.2-2-1.4c-0.9-0.2-2-0.3-3.4-0.3v-1.7h18.6h10.8l0.7,10.2H421l-0.4-1.7
		c-0.2-1-0.5-1.8-0.8-2.5c-0.3-0.7-0.8-1.3-1.5-1.7c-0.7-0.4-1.6-0.7-2.8-0.9c-1.2-0.2-2.7-0.3-4.6-0.3h-5.6v12.7h0.5
		c2.1,0,3.8-0.1,5-0.3c1.2-0.2,2.1-0.5,2.7-1c0.6-0.5,1-1.2,1.1-2c0.2-0.9,0.3-2,0.3-3.4h1.7v16.6h-1.7c0-1.4-0.1-2.6-0.3-3.4
		c-0.2-0.9-0.5-1.6-1.1-2c-0.6-0.5-1.5-0.8-2.7-1c-1.2-0.2-2.9-0.3-5-0.3h-0.5v4.9c0,2.1,0.1,3.8,0.3,5.1c0.2,1.3,0.5,2.3,1,3
		c0.5,0.7,1.1,1.2,2,1.4c0.9,0.2,2,0.3,3.4,0.3h1C414.9,223.3,416.4,223.2,417.6,223z"/>
</g>
<rect x="-0.4" y="244.5" class="st0" width="425.3" height="1.8"/>
<path class="st0" d="M229.3,58.5c-2.2,0.2-4.4,0.9-5.8,2.8c-0.1,0.1-0.1,0.3,0,0.4c0.1,0.1,0.3,0.1,0.4,0l0,0
	c1.3-1.5,3.4-2.1,5.4-2.1c1,0,2,0.2,2.9,0.4c0.9,0.3,2,0.6,3.1,0.8c4.2,0.9,8.8,0.1,12.6-2.1c1.9-1.1,3.7-2.4,5.2-4
	c0.8-0.8,1.4-1.6,2.1-2.4c0.7-0.8,1.4-1.5,2.2-2.2c1.5-1.3,3.3-2.4,5.3-3.1c1.9-0.7,4-1,6-0.8l0.1,0c0,0,0,0,0,0
	c0.2,0,0.4-0.2,0.4-0.4c0-0.2-0.2-0.4-0.4-0.4c-4.3-0.3-8.5,1.2-12.1,3.6c-0.9,0.6-1.8,1.3-2.6,2c-0.8,0.7-1.5,1.5-2.2,2.2
	c-1.4,1.4-3,2.7-4.8,3.7c-3.5,2-7.5,2.8-11.5,2.3c-1-0.1-1.9-0.4-3-0.6C231.5,58.5,230.4,58.4,229.3,58.5z M202.2,54.3
	c1.5,2.7,2.6,5.7,2.9,8.8l0,0c0,0,0,0,0,0c0,0.2,0.3,0.4,0.5,0.3c0.2-0.1,0.4-0.3,0.3-0.5c-0.7-3.2-1.6-6.2-3-9.1
	c-1.3-2.9-2.9-5.8-5.3-8c-2.4-2.3-5.2-3.7-8-5c-1.4-0.7-2.8-1.3-4-2.2c-1.2-0.9-2.4-1.9-3.1-3.2c0,0,0,0,0,0
	c-0.1-0.2-0.4-0.2-0.5-0.1c-0.2,0.1-0.2,0.4-0.1,0.5c1.8,2.8,4.5,4.5,7,6.4c2.5,1.9,5,3.5,7.3,5.4C198.6,49.4,200.7,51.6,202.2,54.3
	z M218.8,63.5c0.2,0,0.5-0.1,0.5-0.4v0c0.3-3.1,1.5-6.1,2.9-8.8c1.5-2.7,3.7-4.9,6-6.7c2.3-1.8,4.8-3.5,7.3-5.4
	c2.5-1.9,5.2-3.6,7-6.4c0,0,0,0,0,0c0.1-0.2,0-0.4-0.2-0.5c-0.2-0.1-0.4,0-0.5,0.2c-0.7,1.3-1.8,2.4-3.1,3.2c-1.3,0.9-2.6,1.6-4,2.2
	c-2.8,1.3-5.6,2.7-8,5c-2.4,2.2-4,5.2-5.3,8c-1.4,2.9-2.3,5.9-3,9.1c0,0,0,0,0,0C218.4,63.2,218.6,63.5,218.8,63.5z M194,32.2
	c2,1.8,4.2,3.2,6.2,4.9c0.5,0.4,1,0.8,1.5,1.2c0.5,0.4,0.9,0.8,1.4,1.2c0.9,0.8,1.7,1.8,2.4,2.8c1.4,2,2.5,4.5,3,7l0,0
	c0.1,0.2,0.3,0.4,0.5,0.4c0.3,0,0.5-0.2,0.4-0.5c-0.1-2.8-1-5.5-2.3-7.9c-0.7-1.2-1.5-2.4-2.5-3.4c-0.5-0.5-1-0.9-1.6-1.4
	c-0.5-0.4-1.1-0.8-1.7-1.1c-2.2-1.4-4.6-2.6-6.7-4.1c-1-0.8-1.9-1.6-2.6-2.7c-0.6-1.1-0.8-2.4-0.6-3.6c0-0.2-0.1-0.3-0.2-0.4
	c-0.2,0-0.3,0.1-0.4,0.3c-0.3,1.3-0.2,2.9,0.4,4.1C192,30.3,193,31.3,194,32.2z M200.5,61.7c0.1,0.1,0.3,0.1,0.4,0
	c0.1-0.1,0.2-0.3,0.1-0.4c-1.4-1.9-3.6-2.7-5.8-2.8c-1.1-0.1-2.2,0-3.3,0.2c-1.1,0.2-2,0.5-3,0.6c-4,0.6-8.1-0.2-11.5-2.3
	c-1.7-1-3.3-2.3-4.8-3.7c-0.7-0.7-1.4-1.5-2.2-2.2c-0.8-0.7-1.7-1.4-2.6-2c-3.6-2.4-7.8-3.9-12.1-3.6c0,0,0,0,0,0
	c-0.2,0-0.4,0.2-0.4,0.5c0,0.2,0.2,0.4,0.4,0.4l0,0c2-0.2,4.1,0.1,6,0.8c1.9,0.7,3.7,1.8,5.2,3.1c0.8,0.7,1.5,1.4,2.2,2.2
	c0.7,0.8,1.3,1.6,2.1,2.4c1.5,1.6,3.3,2.9,5.2,4c3.8,2.1,8.4,2.9,12.6,2.1c1.1-0.2,2.1-0.5,3.1-0.8c1-0.2,2-0.4,2.9-0.4
	C197,59.6,199.1,60.2,200.5,61.7L200.5,61.7z M215.4,49.7c0.2,0.1,0.5-0.1,0.6-0.4l0,0c0.5-2.5,1.6-4.9,3-7c0.7-1,1.5-1.9,2.4-2.8
	c0.4-0.4,0.9-0.8,1.3-1.2c0.5-0.4,1-0.8,1.5-1.2c2-1.6,4.2-3.1,6.2-4.9c1-0.9,2-1.9,2.6-3.2c0.6-1.3,0.7-2.8,0.4-4.1
	c0-0.2-0.2-0.3-0.4-0.3c-0.2,0-0.3,0.2-0.3,0.4c0.2,1.3,0.1,2.6-0.6,3.6c-0.6,1.1-1.6,1.9-2.6,2.7c-2.1,1.5-4.4,2.6-6.7,4.1
	c-0.6,0.4-1.1,0.7-1.7,1.1c-0.6,0.4-1.1,0.9-1.6,1.4c-1,1-1.8,2.2-2.4,3.4c-1.3,2.5-2.2,5.1-2.3,7.9
	C215.1,49.4,215.2,49.6,215.4,49.7z M169,162.9c4.4-0.2,8.5-1.6,12.2-4c1.8-1.2,3.5-2.8,4.7-4.7c0.6-0.9,1.2-1.9,1.7-2.9
	c0.5-1,0.9-2.1,1.2-3.2c0.6-2.2,0.7-4.7-0.1-7c-0.8-2.3-2.7-4.1-5-4.7c-1.1-0.3-2.3-0.4-3.4,0c-0.3,0.1-0.6,0.2-0.8,0.4
	c-0.1,0.1-0.3,0.2-0.4,0.3l-0.3,0.2c-0.5,0.4-0.9,0.8-1.2,1.3c-0.7,1-0.9,2.3-0.8,3.4c0.1,0.6,0.2,1.2,0.4,1.7
	c0.2,0.6,0.4,1.1,1.1,1.7l0.3,0.3c0.2,0.2,0.5,0.3,0.8,0.2c0.5-0.1,0.9-0.6,0.8-1.2c-0.1-0.5-0.6-0.9-1.1-0.8
	c-0.3,0.1-0.7-0.3-0.9-0.7c-0.3-0.4-0.4-0.9-0.5-1.4c-0.1-1,0.1-1.9,0.7-2.7c0.3-0.4,0.6-0.7,1-1l0.3-0.2c0.1,0,0.2-0.1,0.3-0.2
	c0.2-0.1,0.4-0.2,0.6-0.2c0.9-0.2,1.9-0.1,2.7,0.2c1.8,0.7,3.2,2.2,3.7,4c0.6,1.8,0.3,3.9-0.3,5.8c-0.3,1-0.7,1.9-1.1,2.8
	c-0.5,0.9-1,1.8-1.5,2.7c-1.1,1.7-2.4,3.3-3.9,4.7c-1.5,1.4-3.3,2.5-5.2,3.2c-1.9,0.7-4,1.2-6,1.1h0c0,0,0,0,0,0
	c-0.3,0-0.5,0.3-0.5,0.5C168.5,162.7,168.7,163,169,162.9z M215.2,158.5c-0.2,0.2-0.2,0.5-0.1,0.7c0.2,0.3,0.5,0.4,0.8,0.2
	c1.5-0.9,2.7-2.1,3.7-3.4c1.1-1.3,2-2.7,2.8-4.2c1.6-3,2.8-6.2,3.4-9.5c0-0.2-0.1-0.3-0.3-0.4c-0.2,0-0.4,0.1-0.4,0.3
	c-0.4,1.6-0.8,3.2-1.5,4.7c-0.6,1.5-1.4,2.9-2.3,4.3c-0.9,1.4-1.9,2.6-2.9,3.8C217.4,156.2,216.3,157.4,215.2,158.5L215.2,158.5z
	 M222.8,158.3c-1.1,0.9-2.3,1.6-3.5,2.2c-1.2,0.6-2.5,1-3.7,1.3l-0.1,0c-0.2,0.1-0.4,0.2-0.4,0.5c-0.1,0.3,0.1,0.6,0.5,0.7
	c1.7,0.3,3.2-0.2,4.5-0.9c1.4-0.7,2.5-1.7,3.6-2.7c2.2-2.1,3.9-4.5,5.5-7c0.1-0.2,0.1-0.5-0.1-0.6c-0.2-0.1-0.5-0.1-0.6,0.1
	c-0.8,1.2-1.7,2.4-2.6,3.5C225,156.5,223.9,157.4,222.8,158.3z M212.2,160.7c-0.9,0-1.7,0.8-1.7,1.7c0,0.9,0.7,1.7,1.7,1.7
	c0.9,0,1.7-0.8,1.7-1.7C213.9,161.5,213.1,160.7,212.2,160.7z M295.1,116.5c-1.7-3.4-4.2-6.2-6.9-8.5c-2.8-2.3-6-4-9.3-5.3
	c-3-1.1-6.1-2-9.3-2.4c0-0.2,0.1-0.4,0.1-0.6c1.1-2.1,1.8-4.4,2.1-6.9c0.3-2.9-0.1-6-1.6-8.6c-0.7-1.3-1.7-2.5-2.9-3.4
	c-1.2-0.9-2.6-1.4-4-1.7c-1.4-0.3-2.8-0.4-4.2-0.2c-0.5,0.1-1,0.1-1.6,0.2c0.6-0.5,1.2-1,1.8-1.5c1.2-1.2,2.3-2.5,3.2-3.9
	c0.9-1.3,1.9-2.5,2.9-3.7c1.1-1.1,2.2-2.2,3.4-3.2l0.1-0.1c0,0,0.1-0.1,0.1-0.1c0.1-0.2,0-0.4-0.2-0.5v0c-0.8-1-2.2-1.4-3.3-1.6
	c-1.2-0.2-2.4-0.2-3.6-0.1c-1.2,0.1-2.3,0.3-3.4,0.6c1-0.7,2-1.6,2.9-2.4c1.8-1.7,3.3-3.7,4.6-6c1.2-2,2.7-3.7,4.3-5.4
	c1.6-1.7,3.4-3.2,5.1-4.9l0.2-0.1c0,0,0.1-0.1,0.1-0.2c0.1-0.2-0.1-0.4-0.2-0.5v0c-2.6-1.8-5.4-3.3-8.5-4.3c-3-1-6.2-1.5-9.4-1.2
	c-3.2,0.3-6.3,1.2-9.1,2.7c-2.1,1.1-4,2.5-5.6,4.2c0.9-2.5,1.7-5,2.2-7.7c0.3-1.7,0.6-3.5,0.8-5.2c0.1-0.9,0.1-1.8,0.2-2.6
	c0-0.9,0-1.8-0.2-2.7l-0.1-0.2c0-0.1-0.1-0.2-0.2-0.2c-0.2-0.1-0.4,0-0.5,0.2v0c-1.3,1.6-2.9,3-4.7,4.1c-0.9,0.6-1.8,1.1-2.8,1.5
	c-0.4,0.2-0.9,0.4-1.3,0.6c1-1.2,1.9-2.5,2.6-4c1-2,1.6-4.2,1.5-6.5c0-1.2-0.3-2.4-0.8-3.5c-0.5-1.1-1.2-2.2-2.4-2.9
	c-0.6-0.4-1.3-0.5-2-0.5c-0.7,0-1.3,0.2-1.9,0.4c-0.8,0.4-1.4,0.9-1.9,1.6c-0.4-2.1-1-4.2-1.8-6.2c-1-2.3-2.3-4.6-3.9-6.5
	c-1.7-2-3.7-3.6-6.1-4.7c-2.3-1.1-4.9-1.6-7.5-1.7c0,0-0.1,0-0.1,0c0,0,0,0-0.1,0c-2.5,0.1-5,0.6-7.3,1.7c-2.3,1.1-4.4,2.7-6.1,4.7
	c-1.7,1.9-3,4.2-3.9,6.5c-0.8,2-1.4,4.1-1.8,6.2c-0.5-0.7-1.1-1.2-1.9-1.6c-0.6-0.3-1.2-0.4-1.9-0.4c-0.7,0-1.4,0.2-2,0.5
	c-1.2,0.7-1.9,1.8-2.4,2.9c-0.5,1.1-0.7,2.3-0.8,3.5c-0.1,2.3,0.6,4.6,1.5,6.5c0.7,1.5,1.6,2.8,2.6,4c-0.5-0.2-0.9-0.4-1.3-0.6
	c-0.9-0.4-1.9-0.9-2.7-1.5c-1.8-1.1-3.4-2.5-4.7-4.1v0c-0.1-0.1-0.1-0.2-0.2-0.2c-0.2-0.1-0.4,0.1-0.5,0.3l-0.1,0.2
	c-0.3,0.9-0.3,1.8-0.2,2.7c0,0.9,0.1,1.8,0.2,2.6c0.2,1.8,0.4,3.5,0.8,5.2c0.5,2.6,1.3,5.2,2.2,7.7c-1.7-1.7-3.6-3.1-5.6-4.2
	c-2.8-1.5-5.9-2.5-9.1-2.7c-3.2-0.3-6.4,0.2-9.4,1.2c-3,1-5.9,2.5-8.4,4.3v0c-0.1,0-0.1,0-0.2,0.1c-0.1,0.2-0.1,0.4,0,0.5l0.2,0.1
	c1.8,1.7,3.5,3.2,5.1,4.9c1.6,1.7,3.1,3.4,4.3,5.4c1.3,2.2,2.8,4.3,4.6,6c0.9,0.9,1.9,1.7,2.9,2.4c-1.1-0.3-2.3-0.5-3.4-0.6
	c-1.2-0.1-2.4-0.1-3.6,0.1c-1.2,0.2-2.5,0.5-3.3,1.6v0c0,0-0.1,0.1-0.1,0.1c-0.1,0.2-0.1,0.4,0.1,0.5l0.1,0.1c1.2,1,2.3,2.1,3.4,3.2
	c1,1.1,2,2.3,2.9,3.7c0.9,1.4,2,2.7,3.2,3.9c0.6,0.5,1.2,1.1,1.8,1.5c-0.5-0.1-1-0.2-1.6-0.2c-1.4-0.1-2.8-0.1-4.2,0.2
	c-1.4,0.3-2.8,0.9-4,1.7c-1.2,0.9-2.2,2.1-2.9,3.4c-1.4,2.6-1.9,5.7-1.6,8.6c0.3,2.7,1.1,5.2,2.4,7.5c-3.3,0.4-6.4,1.2-9.5,2.4
	c-3.3,1.3-6.4,3-9.2,5.3c-2.8,2.3-5.3,5.1-7,8.5c-1.6,3.4-2.3,7.2-2.1,11c0.3,3.8,1.5,7.5,3.9,10.6c1.2,1.5,2.6,2.9,4.3,3.8
	c0.4,0.2,0.9,0.4,1.3,0.7l0.3,0.1l0.3,0.1l0.6,0.2c0.9,0.3,1.8,0.5,2.7,0.7c3.6,0.7,7.4,0.3,10.7-1.3c1.6-0.8,3.1-1.9,4.4-3.2
	c0.3-0.4,0.5-0.7,0.8-0.9c0.3-0.3,0.6-0.5,1-0.7c0.7-0.4,1.5-0.6,2.3-0.7c3.2-0.3,6.7,1.2,8.3,4.2c1.7,2.9,1.9,6.6,0.7,9.7
	c-0.6,1.5-1.6,3-2.7,4.2c-1.1,1.2-2.5,2-4,2.1c-0.7,0.1-1.5,0-2.2-0.3c-0.7-0.3-1.8-0.8-3-0.5c-0.6,0.2-1.2,0.6-1.5,1.2
	c-0.3,0.5-0.4,1.1-0.5,1.7c0,1.1,0.3,2.1,0.7,3c0.9,1.8,2.3,3,3.7,4.2c1.5,1.1,3.1,2,4.8,2.6c3.4,1.2,7.1,1.4,10.6,0.8
	c3.5-0.6,6.8-1.8,9.9-3.6c2.9-1.7,5.6-3.9,7.7-6.6c2.4,2.7,5.4,4.8,8.7,6.3c3.4,1.5,7.2,2.3,10.9,2.4c0,0,0,0,0,0h0c0,0,0,0,0,0
	c3.7-0.1,7.5-0.9,10.9-2.4c3.3-1.4,6.3-3.5,8.7-6.3c2.1,2.7,4.8,4.9,7.7,6.6c3.1,1.7,6.4,2.9,9.9,3.6c3.5,0.6,7.2,0.4,10.6-0.8
	c1.7-0.6,3.3-1.5,4.8-2.6c1.4-1.1,2.8-2.4,3.7-4.2c0.5-0.9,0.8-1.9,0.7-3c0-0.6-0.1-1.2-0.5-1.7c-0.3-0.6-0.9-1-1.5-1.2
	c-1.2-0.4-2.3,0.2-3,0.5c-0.7,0.3-1.4,0.4-2.2,0.3c-1.5-0.1-2.9-0.9-4-2.1c-1.1-1.2-2-2.7-2.7-4.2c-1.2-3.1-1-6.8,0.7-9.7
	c1.6-3,5.1-4.5,8.3-4.2c0.8,0.1,1.6,0.3,2.3,0.7c0.3,0.2,0.7,0.4,0.9,0.7c0.3,0.3,0.5,0.6,0.8,0.9c1.3,1.4,2.8,2.4,4.4,3.2
	c3.3,1.6,7.1,2,10.7,1.3c0.9-0.2,1.8-0.4,2.7-0.7l0.6-0.2l0.3-0.1l0.3-0.1c0.5-0.2,0.9-0.4,1.3-0.7c1.7-1,3.1-2.3,4.3-3.8
	c2.3-3.1,3.6-6.8,3.9-10.6C297.5,123.7,296.8,119.9,295.1,116.5z M195.8,13.4c1-2.2,2.3-4.2,4-6c1.6-1.7,3.6-3,5.7-3.9
	c2.1-0.8,4.4-1.1,6.7-1c0,0,0.1,0,0.1,0c2.2-0.1,4.5,0.2,6.6,1c2.1,0.8,4.1,2.2,5.7,3.9c1.6,1.7,2.9,3.8,4,6c1,2.1,1.7,4.4,2.1,6.7
	c-1.4,0.8-2.9,1.3-4.4,1c-1.6-0.3-3-1.1-4.4-2.1c-1.4-1-2.7-2.2-4.3-3.2c-1.5-1-3.3-2-5.4-2.1c0,0,0,0-0.1,0h0l-0.1,0
	c0,0-0.1,0-0.1,0c0,0,0,0-0.1,0c-2,0.1-3.8,1.1-5.2,2.1c-1.5,1-2.9,2.2-4.3,3.2c-1.4,1-2.9,1.9-4.4,2.1c-1.5,0.3-3-0.2-4.4-1
	C194.1,17.8,194.8,15.6,195.8,13.4z M187.1,29.9c-0.7-1.9-1.1-3.8-1-5.7c0.1-0.9,0.3-1.8,0.6-2.6c0.4-0.8,0.9-1.5,1.5-1.8
	c0.6-0.3,1.2-0.4,2-0.2c0.8,0.2,1.7,0.6,2.5,1.1c0,0,0,0,0,0c0,0,0,0,0,0l0,0c1.4,1.1,3.3,1.9,5.3,1.7c0.9-0.1,1.8-0.3,2.6-0.6
	c1,0.8,1.9,1.5,2.8,2.4c1,1,1.8,2,2.6,3.2c0.7,1.2,1.3,2.5,1.7,3.9c0.4,1.4,0.7,2.8,0.6,4.2v0c0,0,0,0,0,0.1c0,0.3,0.3,0.5,0.5,0.4
	c0.3,0,0.4-0.3,0.4-0.5c-0.1-1.5-0.4-3-0.8-4.4c-0.4-1.4-0.8-2.9-1.5-4.2c-0.6-1.4-1.5-2.7-2.5-3.8c-0.7-0.7-1.5-1.4-2.4-1.9
	c0.4-0.2,0.8-0.4,1.1-0.6c1-0.6,1.9-1.2,2.8-1.8c0.4,0.5,0.8,1.1,1.2,1.6c0.5,0.8,1,1.7,1.4,2.6c0.4,0.9,0.7,1.9,1,2.8
	c0.2,1,0.4,2,0.5,3v0c0,0.2,0.2,0.3,0.4,0.3c0.2,0,0.3-0.2,0.3-0.4c-0.1-2.1-0.5-4.2-1.1-6.2c-0.3-1-0.7-2-1.2-2.9
	c-0.3-0.6-0.7-1.1-1.1-1.6c0.2-0.1,0.3-0.2,0.5-0.3c1.2-0.7,2.3-1.1,3.5-1.3c-0.1,0.4,0,0.8,0,1.2c0.1,0.6,0.2,1.2,0.3,1.9
	c0.2,1.2,0.2,2.5,0.3,3.7c0,0.2,0.1,0.3,0.3,0.3c0.2,0,0.4-0.1,0.4-0.3c0-1.2,0.1-2.5,0.3-3.7c0.1-0.6,0.2-1.2,0.3-1.9
	c0-0.4,0.1-0.8,0-1.2c1.2,0.1,2.3,0.6,3.5,1.3c0.2,0.1,0.3,0.2,0.5,0.3c-0.4,0.5-0.8,1-1.1,1.6c-0.5,0.9-0.9,1.9-1.2,2.9
	c-0.6,2-1,4.1-1.1,6.2c0,0,0,0,0,0c0,0.2,0.1,0.4,0.3,0.4c0.2,0,0.4-0.1,0.4-0.3v0c0-1,0.2-2,0.5-3c0.2-1,0.6-1.9,1-2.8
	c0.4-0.9,0.9-1.8,1.4-2.6c0.4-0.6,0.8-1.1,1.2-1.6c0.9,0.6,1.8,1.2,2.8,1.8c0.4,0.2,0.7,0.4,1.1,0.6c-0.9,0.5-1.7,1.2-2.4,1.9
	c-1,1.1-1.9,2.4-2.5,3.8c-0.6,1.4-1.1,2.8-1.5,4.2c-0.4,1.4-0.6,2.9-0.8,4.4c0,0,0,0,0,0.1c0,0.3,0.2,0.5,0.5,0.5
	c0.3,0,0.5-0.2,0.5-0.5v0c0-1.4,0.2-2.8,0.6-4.2c0.4-1.4,1-2.7,1.7-3.9c0.7-1.2,1.6-2.2,2.6-3.2c0.9-0.9,1.8-1.6,2.8-2.4
	c0.8,0.3,1.7,0.6,2.6,0.6c1.9,0.2,3.8-0.6,5.3-1.7l0,0c0,0,0,0,0,0c0,0,0,0,0,0c0.9-0.5,1.7-0.9,2.5-1.1c0.8-0.2,1.5-0.1,2,0.2
	c0.6,0.3,1.1,1,1.5,1.8c0.4,0.8,0.6,1.7,0.7,2.6c0.1,1.9-0.3,3.8-1,5.7c-0.7,1.8-1.6,3.5-2.7,5.2c-1.2,0.7-2.5,1.4-3.7,2
	c-1.4,0.7-2.7,1.5-4.1,2.3c-2.7,1.7-5.2,3.7-7.2,6.2c-2.1,2.5-3.8,5.2-5.1,8.2c-1,2.1-1.7,4.4-2.3,6.7c-0.6-2.3-1.3-4.5-2.3-6.7
	c-1.3-2.9-3-5.7-5.1-8.2c-2.1-2.5-4.6-4.5-7.2-6.2c-1.3-0.8-2.7-1.6-4.1-2.3c-1.3-0.6-2.6-1.3-3.7-2
	C188.7,33.4,187.7,31.7,187.1,29.9z M155,95.9c-0.2-1.1-0.4-2.1-0.4-3.2c-0.2-2.6,0.2-5.2,1.3-7.5c1.1-2.3,3.1-3.9,5.5-4.5
	c2.4-0.6,5.1-0.6,7.6-0.1l0.1,0c0.2,0,0.4-0.1,0.5-0.3c0.1-0.2,0-0.5-0.2-0.6l0,0c-1.3-0.7-2.6-1.7-3.7-2.9c-1.1-1.1-2-2.4-2.7-3.9
	c-0.7-1.5-1.7-3-2.9-4.1c-1-0.9-2-1.8-3.2-2.4c0.7-0.3,1.4-0.5,2.1-0.6c1.1-0.2,2.2-0.2,3.3-0.1c2.2,0.1,4.5,0.6,6.6,1.1l0.1,0
	c0,0,0,0,0,0c2.5,1,5.2,1.6,7.9,1.8c2.8,0.2,5.6-0.2,8.2-1.4c0.6-0.3,1.3-0.7,1.8-1.1c0.6-0.4,1.1-0.8,1.6-1.1
	c1.1-0.7,2.3-1.2,3.5-1.5c1.2-0.2,2.6-0.1,3.7,0.4c1.2,0.5,2.2,1.5,2.9,2.6l0,0c0,0,0,0,0,0c0.1,0.1,0.3,0.2,0.4,0.1
	c0.1-0.1,0.2-0.3,0.1-0.4c-0.8-1.2-1.8-2.2-3.1-2.9c-1.3-0.7-2.7-0.9-4.1-0.8c-1.4,0.1-2.8,0.5-4.1,1.1c-0.6,0.3-1.3,0.7-1.8,1
	c-0.5,0.4-1.1,0.6-1.7,0.9c-2.3,1.1-4.8,1.7-7.5,1.8c-2.6,0.1-5.2-0.4-7.6-1.4c0,0,0,0-0.1,0l0,0c-2.1-1-4.1-2.5-5.7-4.2
	c-1.6-1.7-3-3.8-3.7-6c-0.8-2.5-2.3-4.7-4.2-6.4c-1.6-1.5-3.4-2.7-5.5-3.6c2.5-1.3,5-2.4,7.6-3.2c2.9-0.9,5.9-1.4,8.9-1.3
	c3,0.1,6,0.8,8.7,2.2c2.7,1.4,5.2,3.3,7,5.7c0,0,0,0,0,0c0.5,0.9,1,1.6,1.5,2.4c0.6,0.7,1.2,1.4,1.8,2.1c1.3,1.3,2.9,2.4,4.6,3.1
	l0,0c0.2,0.1,0.4,0,0.4-0.2c0.1-0.2,0-0.4-0.2-0.4c-1.6-0.6-3.1-1.7-4.3-3c-1.2-1.3-2.3-2.8-3-4.4l0,0c0,0,0,0,0,0c0,0,0,0,0,0
	c-1.2-3.2-2.2-6.5-2.8-9.8c-0.3-1.7-0.6-3.4-0.7-5.1c-0.1-0.9-0.1-1.7-0.1-2.6c0-0.4,0-0.8,0-1.3c1.2,1.3,2.5,2.4,4,3.3
	c0.9,0.6,1.9,1.1,2.8,1.5c0.7,0.3,1.5,0.6,2.3,0.9c0,0.1,0.1,0.1,0.2,0.2c2.7,1.5,5.3,3.1,7.7,5c2.3,1.9,4.4,4,6.3,6.4
	c3.8,4.6,6.5,10.1,8.8,15.9c0.1,0.2,0.3,0.4,0.5,0.4c0,0,0.1,0,0.1,0c0,0,0,0,0,0c0,0,0,0,0,0c0.2,0,0.4-0.2,0.4-0.4
	c2.3-5.8,5-11.3,8.8-15.9c1.9-2.3,4-4.5,6.3-6.4c2.4-1.9,5-3.4,7.7-5c0,0,0,0,0,0c0.1,0,0.1-0.1,0.1-0.1c0.8-0.3,1.5-0.6,2.3-0.9
	c1-0.5,1.9-1,2.8-1.5c1.4-0.9,2.8-2,4-3.3c0,0.4,0,0.8,0,1.3c0,0.9-0.1,1.7-0.1,2.6c-0.1,1.7-0.4,3.4-0.7,5.1
	c-0.6,3.3-1.5,6.6-2.8,9.8c0,0,0,0,0,0l0,0c-0.8,1.6-1.8,3.1-3,4.4c-1.2,1.3-2.7,2.3-4.3,3l0,0c-0.2,0.1-0.3,0.3-0.2,0.4
	c0.1,0.2,0.3,0.3,0.4,0.2c1.7-0.7,3.2-1.8,4.6-3.1c0.7-0.6,1.3-1.3,1.8-2.1c0.6-0.7,1.1-1.5,1.5-2.4c0,0,0,0,0,0c0,0,0,0,0,0
	c1.9-2.4,4.4-4.3,7-5.7c2.7-1.4,5.7-2.1,8.7-2.2c3-0.1,6,0.4,8.9,1.3c2.6,0.8,5.1,1.9,7.6,3.2c-2,0.8-3.9,2.1-5.5,3.6
	c-1.9,1.7-3.4,3.9-4.2,6.4c-0.7,2.2-2,4.3-3.7,6c-1.6,1.7-3.6,3.2-5.7,4.2l0,0c0,0,0,0-0.1,0c-2.4,1-5.1,1.4-7.7,1.4
	c-2.6-0.1-5.2-0.7-7.5-1.8c-0.6-0.3-1.1-0.6-1.7-0.9c-0.6-0.4-1.2-0.7-1.8-1c-1.3-0.6-2.7-1-4.1-1.1c-1.4-0.1-2.9,0.2-4.1,0.8
	c-1.3,0.7-2.3,1.6-3.1,2.9v0c-0.1,0.1-0.1,0.3,0.1,0.4c0.1,0.1,0.3,0,0.4-0.1l0,0c0.7-1.1,1.7-2,2.9-2.6c1.2-0.6,2.5-0.7,3.7-0.4
	c1.2,0.2,2.4,0.8,3.5,1.5c0.6,0.3,1.1,0.7,1.6,1.1c0.6,0.4,1.2,0.8,1.8,1.1c2.6,1.3,5.5,1.6,8.2,1.4c2.7-0.2,5.3-0.8,7.9-1.8
	c0,0,0,0,0.1,0l0.1,0c2.2-0.6,4.4-1,6.6-1.1c1.1-0.1,2.2,0,3.3,0.1c0.7,0.1,1.4,0.4,2.1,0.6c-1.2,0.6-2.3,1.4-3.2,2.4
	c-1.2,1.2-2.2,2.6-2.9,4.1c-0.7,1.4-1.6,2.7-2.7,3.9c-1.1,1.1-2.3,2.2-3.7,2.9l0,0c-0.2,0.1-0.3,0.3-0.3,0.5c0,0.2,0.3,0.4,0.5,0.4
	l0.1,0c2.5-0.5,5.2-0.5,7.6,0.1c2.4,0.7,4.4,2.2,5.5,4.5c1.2,2.2,1.5,4.9,1.3,7.5c-0.1,0.8-0.2,1.6-0.3,2.5
	c-0.1-0.5-0.2-0.9-0.4-1.3c-0.8-2.3-2.4-4.3-4.5-5.3c-2.1-1.1-4.5-1.3-6.7-0.8c-2.2,0.4-4.2,1.6-5.9,3.1l0,0c-0.2,0.2-0.2,0.4,0,0.6
	c0.1,0.2,0.4,0.2,0.5,0c1.6-1.4,3.5-2.3,5.5-2.6c2-0.3,4.1,0.3,5.7,1.3c0.8,0.5,1.5,1.1,2.1,1.9c-0.8-0.2-1.7-0.3-2.5-0.3
	c-1.6,0-3.2,0.1-4.8,0.6c-3.1,0.8-5.9,2.6-8.2,4.9c-0.1,0.1-0.2,0.4,0,0.6c0.1,0.2,0.4,0.2,0.5,0c2.3-2.1,5-3.6,7.9-4.3
	c1.5-0.3,3-0.4,4.5-0.4c1.2,0.1,2.5,0.3,3.7,0.6c0.2,0.3,0.3,0.6,0.5,0.9c0.2,0.6,0.4,1.2,0.6,1.9c-0.6-0.2-1.2-0.4-1.9-0.5
	c-1-0.2-2-0.3-3-0.3c-2,0-4,0.5-5.9,1.1c0,0,0,0,0,0c-0.2,0.1-0.3,0.3-0.3,0.6c0.1,0.2,0.3,0.3,0.5,0.3c1.8-0.7,3.7-0.8,5.5-0.5
	c0.9,0.1,1.8,0.3,2.7,0.6c0.9,0.3,1.7,0.7,2.4,1.1l0,0c0,0,0.1,0,0.1,0.1c0,0,0.1,0,0.1,0c0,0.4,0,0.9,0,1.4
	c-6.8-1.4-13.9-1.5-20.8,0c-7,1.4-13.7,4.4-20,7.4l0,0c0,0,0,0,0,0c-0.7,0.4-1,1.2-0.6,1.9c0.3,0.5,0.8,0.8,1.3,0.8
	c0.1,0.1,0.1,0.2,0.2,0.2c0-0.1,0.3,0,0.4,0.1c0.2,0.1,0.3,0.3,0.4,0.5c0.2,0.4,0.3,0.8,0.3,1.2c0,0.9-0.5,1.7-1.3,2.1
	c-0.8,0.4-1.7,0.6-2.6,0.7c-0.9,0.1-1.7,0-2.4-0.4c-1.4-0.7-2.5-2.2-2.6-3.8c-0.2-1.6,0.4-3.2,1.5-4.7c1.1-1.5,2.5-2.6,4.1-3.7
	c1.6-1.1,3.2-2,5-2.8c3.5-1.5,7.3-2.5,11.1-2.1l0,0c0,0,0,0,0,0c0.3,0,0.5-0.2,0.5-0.5c0-0.2-0.1-0.4-0.3-0.5
	c-0.7-1.3-1.2-2.6-1.4-3.9c-0.2-1.4-0.1-2.7,0.4-4c0.9-2.6,2.9-4.6,5-6.6c1.1-1,2.3-1.9,3.6-2.5c1.4-0.7,2.7-1.6,3.9-2.5
	c2.4-2,4.3-4.5,5.5-7.5v0c0.1-0.2,0-0.4-0.2-0.5c-0.2-0.1-0.4,0-0.5,0.2l0,0c-1.1,2.8-3,5.2-5.3,7c-1.2,0.9-2.5,1.6-3.8,2.2
	c-1.4,0.6-2.9,1.2-4.3,1.9c-2.8,1.5-5.2,4.2-6.1,7.5c-0.5,1.7-0.4,3.5,0.1,5.2c0.4,1.3,1.1,2.4,1.8,3.3c-1.6,0-3.2,0.1-4.8,0.4
	c-1.9,0.3-3.9,0.8-5.7,1.5c-1.9,0.7-3.7,1.5-5.4,2.5c-1.7,1-3.5,2.2-4.8,3.9c-0.7,0.8-1.3,1.8-1.7,2.9c-0.2,0.4-0.3,0.9-0.3,1.3
	c-0.1,0-0.1-0.1-0.2-0.1c-0.6-0.5-1.2-0.8-1.8-1.2c-0.6-0.3-1.3-0.6-2-0.8c-0.7-0.2-1.4-0.3-2.1-0.3c0,0-0.1,0-0.1,0c0,0,0,0,0,0
	c-0.7,0.1-1.3,0.1-2,0.3c-0.7,0.2-1.4,0.4-2,0.8c-0.6,0.3-1.2,0.7-1.7,1.1l0,0c0,0,0,0,0,0c0,0,0,0,0,0c-0.1-0.4-0.2-0.8-0.3-1.1
	c-0.4-1.1-1-2-1.7-2.9c-1.4-1.7-3.1-2.9-4.8-3.9c-1.7-1-3.5-1.8-5.4-2.5c-1.9-0.7-3.8-1.2-5.7-1.5c-1.6-0.3-3.2-0.4-4.8-0.4
	c0.8-1,1.5-2.1,1.8-3.3c0.5-1.6,0.6-3.5,0.1-5.2c-0.9-3.4-3.3-6-6.1-7.5c-1.4-0.8-2.8-1.4-4.3-1.9c-1.4-0.5-2.6-1.3-3.8-2.2
	c-2.3-1.8-4.3-4.3-5.3-7l0,0l0,0c-0.1-0.2-0.3-0.3-0.5-0.2c-0.2,0.1-0.3,0.3-0.2,0.5c1.2,3,3.1,5.5,5.5,7.5c1.2,1,2.5,1.8,3.9,2.5
	c1.3,0.7,2.5,1.6,3.6,2.5c2.1,2,4.1,4,5,6.6c0.4,1.3,0.6,2.6,0.4,4c-0.2,1.3-0.7,2.6-1.3,3.9c-0.2,0.1-0.3,0.3-0.3,0.5
	c0,0.3,0.3,0.5,0.6,0.5l0,0c3.7-0.4,7.6,0.6,11.1,2.1c1.7,0.8,3.4,1.7,5,2.8c1.6,1.1,3,2.2,4.1,3.7c1.1,1.4,1.7,3.1,1.5,4.7
	c-0.2,1.6-1.2,3-2.6,3.8c-0.8,0.4-1.5,0.5-2.4,0.4c-0.9-0.1-1.8-0.3-2.5-0.7c-0.8-0.4-1.3-1.3-1.3-2.1c0-0.4,0.1-0.9,0.3-1.2
	c0.1-0.2,0.2-0.4,0.4-0.5c0.1-0.1,0.3-0.2,0.4-0.1c0.1-0.1,0.1-0.2,0.2-0.3c0.4-0.1,0.8-0.3,1-0.8c0.3-0.7,0-1.6-0.7-1.9v0
	c-6.4-3-13-6-20-7.4c-6.8-1.4-13.8-1.4-20.5,0c0-0.4,0-0.9,0-1.3c0.1,0,0.2,0,0.2-0.1l0,0c0.7-0.4,1.5-0.9,2.4-1.1
	c0.9-0.3,1.8-0.5,2.7-0.6c1.8-0.2,3.7-0.1,5.5,0.5c0,0,0,0,0,0c0.2,0.1,0.5,0,0.5-0.3c0.1-0.2,0-0.5-0.3-0.6
	c-1.9-0.6-3.8-1.1-5.9-1.1c-1,0-2,0.1-3,0.3c-0.6,0.1-1.3,0.3-1.9,0.5c0.1-0.6,0.3-1.3,0.6-1.9c0.1-0.3,0.3-0.6,0.5-0.9
	c1.2-0.3,2.4-0.5,3.7-0.6c1.5-0.1,3,0,4.5,0.4c2.9,0.6,5.7,2.2,7.9,4.3c0.1,0.1,0.4,0.1,0.5,0c0.1-0.2,0.1-0.4,0-0.6
	c-2.3-2.3-5.1-4-8.2-4.9c-1.5-0.4-3.2-0.6-4.8-0.6c-0.8,0-1.7,0.1-2.5,0.3c0.6-0.7,1.3-1.3,2.1-1.9c1.6-1.1,3.7-1.6,5.7-1.3
	c2,0.3,4,1.2,5.5,2.6c0.2,0.1,0.4,0.1,0.6,0c0.1-0.2,0.1-0.4,0-0.6l0,0c-1.6-1.5-3.7-2.7-5.9-3.1c-2.2-0.4-4.6-0.2-6.7,0.8
	c-2.1,1-3.8,3.1-4.6,5.3C155.2,94.5,155.1,95.2,155,95.9z M160.2,158.8c0-0.1,0.1-0.1,0.2-0.2c0.7,0.1,1.4,0.2,2.1,0.1
	c2-0.2,3.7-1.4,4.9-2.8c1.2-1.4,2.1-3,2.8-4.8c1.3-3.5,0.9-7.6-1.1-10.8c-0.5-0.8-1-1.5-1.7-2.1c-0.7-0.6-1.5-1.1-2.3-1.5
	c-1.6-0.8-3.4-1.2-5.3-1c-0.9,0.1-1.8,0.3-2.7,0.8c-0.4,0.2-0.8,0.5-1.2,0.8c-0.4,0.3-0.7,0.7-1,1c-0.9,0.8-1.9,1.5-3,2
	c-0.2,0-0.3,0.1-0.5,0.1c-1.3,0.1-2.4-0.8-3-1.9c0-0.1-0.1-0.2-0.1-0.3c1-0.8,2-1.6,3-2.3c1.1-0.7,2.2-1.4,3.4-2
	c1.2-0.6,2.5-1,3.8-1.2c1.3-0.2,2.7-0.4,4-0.3h0c0,0,0,0,0.1,0c0.3,0,0.5-0.2,0.4-0.5c0-0.3-0.2-0.5-0.5-0.5
	c-1.4,0.1-2.8,0.2-4.2,0.4c-1.4,0.2-2.7,0.5-4.1,0.9c-1.3,0.4-2.7,1-3.9,1.8c-1,0.6-1.9,1.4-2.6,2.3c-0.3-1.4-0.3-2.8-0.1-4.3
	c1.5-0.9,3-1.8,4.6-2.6c1.7-0.8,3.5-1.4,5.3-1.8c1.8-0.4,3.7-0.6,5.6-0.5c1.9,0.1,3.8,0.3,5.6,0.8l0,0l0,0c0.2,0.1,0.4-0.1,0.4-0.2
	c0.1-0.2-0.1-0.4-0.2-0.4c-1.9-0.5-3.8-0.8-5.8-0.9c-1.9-0.1-3.9,0-5.8,0.3c-3.3,0.5-6.5,1.6-9.3,3.5c0-0.1,0-0.1,0.1-0.2
	c0.6-1.7,1.5-3.3,2.7-4.6c1.7-0.8,3.5-1.4,5.3-1.9c2-0.5,4-0.8,6-0.7c2,0,4.1,0.4,6.1,0.9c2,0.6,3.9,1.4,5.7,2.4l0,0
	c0.2,0.1,0.4,0,0.5-0.2c0.1-0.2,0-0.4-0.2-0.5c-1.9-0.9-3.9-1.7-5.9-2.3c-2-0.6-4.1-0.9-6.2-1.1c-2.1-0.1-4.2-0.1-6.3,0.3
	c-0.8,0.1-1.5,0.3-2.2,0.5c1.7-1.3,3.7-2.3,5.6-3.2c3.6-0.5,7.5-0.6,11.2,0c2.1,0.4,4.1,1,6,1.8c1.9,0.8,3.8,1.8,5.5,3.1
	c0,0,0,0,0,0c0.2,0.1,0.4,0.1,0.6-0.1c0.1-0.2,0.1-0.4-0.1-0.6c-1.8-1.2-3.7-2.2-5.7-3c-2-0.9-4-1.5-6.1-2c-2.1-0.5-4.2-0.8-6.3-0.9
	c0,0,0,0-0.1,0c4-0.9,8.1-1,12-0.2c2.6,0.6,5.2,1.6,7.5,3c2.3,1.4,4.3,3.3,5.8,5.5c3,4.5,4.2,10.2,3.5,15.8
	c-0.7,5.6-2.9,11.1-6.7,15.2c-3.8,4-9.2,6.6-14.7,6.9c-2.8,0.2-5.5-0.4-7.9-1.7c-1.2-0.7-2.3-1.6-3.1-2.6
	C160.3,159.9,160.1,159.1,160.2,158.8z M273,140.6c-0.2,0-0.3-0.1-0.5-0.1c-1.1-0.5-2.1-1.2-3-2c-0.3-0.3-0.6-0.7-1-1
	c-0.4-0.3-0.8-0.6-1.2-0.8c-0.8-0.4-1.7-0.7-2.6-0.8c-1.8-0.2-3.6,0.2-5.3,1c-0.8,0.4-1.6,0.9-2.3,1.5c-0.7,0.6-1.3,1.4-1.7,2.1
	c-1.9,3.2-2.3,7.2-1.1,10.8c0.7,1.8,1.6,3.3,2.8,4.8c1.2,1.4,2.9,2.5,4.9,2.8c0.7,0.1,1.4,0,2.1-0.1c0.1,0.1,0.1,0.1,0.1,0.2
	c0.1,0.3-0.2,1-0.6,1.5c-0.8,1.1-1.9,1.9-3.1,2.6c-2.4,1.4-5.2,2-7.9,1.7c-5.5-0.3-10.9-2.8-14.7-6.9c-3.8-4.1-6-9.6-6.7-15.2
	c-0.7-5.6,0.5-11.3,3.5-15.8c1.5-2.2,3.5-4.1,5.8-5.5c2.3-1.4,4.8-2.4,7.5-3c3.9-0.9,8.1-0.8,12,0.2c0,0,0,0-0.1,0
	c-2.1,0.1-4.3,0.4-6.3,0.9c-2.1,0.5-4.1,1.1-6.1,2c-2,0.8-3.8,1.8-5.7,3c0,0,0,0,0,0c-0.2,0.1-0.2,0.4-0.1,0.6
	c0.1,0.2,0.4,0.2,0.5,0.1c1.7-1.2,3.6-2.2,5.5-3.1c1.9-0.8,3.9-1.4,6-1.8c3.7-0.7,7.5-0.5,11.2,0c1.9,0.9,3.9,1.9,5.6,3.2
	c-0.7-0.2-1.5-0.4-2.2-0.5c-2.1-0.4-4.2-0.4-6.3-0.3c-2.1,0.2-4.2,0.5-6.2,1.1c-2,0.6-4,1.4-5.9,2.3c0,0,0,0,0,0
	c-0.2,0.1-0.3,0.3-0.2,0.5c0.1,0.2,0.4,0.3,0.5,0.2c1.8-1,3.7-1.8,5.7-2.4c2-0.6,4-0.9,6.1-0.9c2-0.1,4.1,0.2,6,0.7
	c1.8,0.4,3.7,1.1,5.3,1.9c1.2,1.3,2.1,2.8,2.7,4.6c0,0.1,0,0.1,0.1,0.2c-2.8-1.9-6-3-9.3-3.5c-1.9-0.3-3.9-0.3-5.8-0.3
	c-1.9,0.1-3.9,0.4-5.8,0.9l0,0c-0.2,0.1-0.3,0.2-0.2,0.4c0.1,0.2,0.2,0.3,0.4,0.2l0,0c1.8-0.5,3.7-0.7,5.6-0.8
	c1.9-0.1,3.8,0.2,5.6,0.5c1.8,0.4,3.6,1,5.3,1.8c1.6,0.7,3.1,1.6,4.6,2.6c0.2,1.4,0.2,2.9-0.1,4.3c-0.7-0.9-1.6-1.7-2.6-2.3
	c-1.2-0.8-2.5-1.3-3.9-1.8c-1.3-0.4-2.7-0.7-4.1-0.9c-1.4-0.2-2.7-0.3-4.2-0.4c0,0,0,0-0.1,0c-0.3,0-0.4,0.3-0.4,0.5
	c0,0.3,0.3,0.5,0.5,0.4h0c1.3-0.1,2.7,0,4,0.3c1.3,0.3,2.6,0.7,3.8,1.2c1.2,0.5,2.4,1.2,3.4,2c1,0.7,2,1.5,3,2.3
	c0,0.1-0.1,0.2-0.1,0.3C275.4,139.8,274.3,140.7,273,140.6z M290.9,116c-2.1-2.9-4.9-5.2-7.9-6.7c-3.1-1.6-6.4-2.5-9.7-3
	c-6.7-0.9-13.4-0.1-19.9,1.6c-6.4,1.8-12.6,4.5-18.3,7.9c-0.1,0.1-0.1,0.2-0.1,0.3c0.1,0.1,0.2,0.2,0.3,0.1
	c5.8-3.3,11.9-5.7,18.3-7.2c6.4-1.5,13-2.1,19.3-1c6.3,1.1,12.4,4.1,16.1,9.4c1.8,2.6,3.1,5.6,3.6,8.8c0.3,1.6,0.3,3.2,0.2,4.7
	c-0.2,1.5-0.6,3.1-1.3,3.9c0,0,0,0,0,0c-0.3,0.4-0.4,0.8-0.3,1.2c0,0.1-0.1,0.1-0.1,0.2c-1,1.3-2.2,2.3-3.5,3.1
	c-0.3,0.2-0.7,0.4-1,0.5l-0.3,0.1l-0.3,0.1l-0.6,0.2c-0.8,0.3-1.5,0.6-2.3,0.8c-2.8,0.8-5.7,0.9-8.5,0.1c0.2-0.1,0.4-0.2,0.6-0.3
	c0.7-0.5,1.2-1.1,1.6-1.8c0.8-1.4,1.1-3,1.1-4.5c0-0.7,0-1.4-0.1-2.1c0.1-0.2,0-0.4-0.1-0.5c-0.1-0.6-0.3-1.3-0.5-1.9
	c-0.9-2.9-2.7-5.5-5-7.4c-2.3-1.9-4.7-3.5-7.4-4.7c-5.4-2.4-11.4-3.3-17.3-2.2c-3.4,0.6-6.7,2-9.5,4c-2.4,1.4-4.7,3-6.9,4.9
	c-2.6,2.2-4.9,4.7-6.9,7.5c-2,2.8-3.7,5.8-5,9c-1.2,3.2-2.1,6.6-2.2,10c0,0.1,0.1,0.3,0.2,0.3c0.1,0,0.3-0.1,0.3-0.2v0
	c0.4-3.3,1.4-6.6,2.8-9.6c1.4-3,3.1-5.9,5.2-8.5c1.9-2.4,3.9-4.5,6.2-6.4c-1.2,2.2-2.1,4.6-2.5,7.1c-0.5,3.1-0.5,6.2,0,9.2
	c0.5,3,1.4,5.9,2.7,8.6c1.3,2.7,2.9,5.3,5.1,7.4c4.3,4.2,10,6.7,15.8,6.9c2.9,0.2,5.9-0.5,8.5-1.9c1.3-0.7,2.5-1.6,3.4-2.9
	c0.2-0.3,0.5-0.7,0.6-1.1c0.2-0.4,0.3-0.9,0.2-1.4c0-0.1-0.1-0.1-0.1-0.2c0.3-0.1,0.6-0.2,0.8-0.3c0.3-0.1,0.6-0.1,0.9,0
	c0.4,0.1,0.7,0.6,0.7,1.2c0,0.7-0.2,1.4-0.6,2.1c-0.7,1.3-1.9,2.6-3.2,3.6c-1.3,1-2.8,1.8-4.3,2.4c-3.1,1.2-6.5,1.3-9.8,0.8
	c-6.6-1.1-13.1-4.2-17.5-9.5h0l0,0c-0.2-0.2-0.5-0.2-0.6,0l0,0c-2.4,2.7-5.6,4.7-8.9,6c-3.3,1.3-6.9,1.9-10.5,1.9
	c-3.6,0.1-7.1-0.6-10.5-1.9c-3.3-1.3-6.4-3.3-8.9-6l0,0l0,0c-0.2-0.2-0.5-0.1-0.6,0.1h0c-4.4,5.3-10.9,8.4-17.5,9.5
	c-3.3,0.5-6.7,0.3-9.8-0.8c-1.6-0.6-3-1.4-4.3-2.4c-1.3-1-2.5-2.2-3.2-3.6c-0.3-0.7-0.6-1.4-0.6-2.1c0-0.7,0.3-1.1,0.7-1.2
	c0.2-0.1,0.5-0.1,0.9,0c0.3,0.1,0.5,0.2,0.8,0.3c0,0.1-0.1,0.1-0.1,0.2c-0.1,0.6,0,1,0.2,1.4c0.2,0.4,0.4,0.7,0.6,1.1
	c0.9,1.3,2.2,2.2,3.4,2.9c2.6,1.5,5.6,2.1,8.5,1.9c5.8-0.2,11.5-2.7,15.8-6.9c2.2-2.1,3.8-4.7,5.1-7.4c1.3-2.7,2.2-5.6,2.7-8.6
	c0.5-3,0.5-6.1,0-9.2c-0.4-2.5-1.3-4.9-2.5-7.1c2.2,2,4.3,4.1,6.2,6.4c2,2.6,3.8,5.4,5.2,8.5c1.3,3,2.4,6.3,2.8,9.6v0
	c0,0.1,0.1,0.2,0.3,0.2c0.1,0,0.2-0.1,0.2-0.3c-0.1-3.5-1-6.8-2.2-10c-1.2-3.2-2.9-6.2-5-9c-2-2.8-4.4-5.3-6.9-7.5
	c-2.1-1.8-4.4-3.5-6.9-4.9c-2.9-2-6.2-3.3-9.5-4c-5.9-1.1-11.9-0.2-17.3,2.2c-2.7,1.2-5.2,2.8-7.4,4.7c-2.3,1.9-4.1,4.5-5,7.4
	c-0.2,0.6-0.3,1.2-0.5,1.9c-0.1,0.1-0.1,0.3-0.1,0.5c-0.1,0.7-0.2,1.4-0.1,2.1c0,1.5,0.3,3.1,1.1,4.5c0.4,0.7,0.9,1.3,1.6,1.8
	c0.2,0.1,0.4,0.2,0.6,0.3c-2.8,0.8-5.8,0.6-8.5-0.1c-0.8-0.2-1.5-0.5-2.3-0.8l-0.6-0.2l-0.3-0.1l-0.3-0.1c-0.3-0.1-0.7-0.3-1-0.5
	c-1.3-0.8-2.5-1.8-3.5-3.1c-0.4-0.5-0.7-1-1.1-1.6c-0.4-0.8-0.6-1.8-0.7-2.9c-0.2-1.5-0.1-3.1,0.2-4.7c0.5-3.1,1.7-6.2,3.6-8.8
	c3.7-5.3,9.8-8.3,16.1-9.4c6.4-1.1,13-0.5,19.3,1c6.4,1.5,12.5,4,18.3,7.2c0.1,0.1,0.3,0,0.3-0.1c0.1-0.1,0-0.3-0.1-0.3
	c-5.7-3.5-11.8-6.2-18.3-7.9c-6.4-1.7-13.2-2.6-19.9-1.6c-3.3,0.5-6.7,1.4-9.7,3c-3.1,1.6-5.8,3.9-7.9,6.7c-1.5,2.1-2.7,4.4-3.5,6.9
	c0.2-2.1,0.7-4.2,1.6-6.2c1.3-3,3.5-5.7,6-7.9c5-4.3,11.4-7.1,17.9-8.5c0.1,0,0.1,0,0.2,0c0.1,0,0.3-0.1,0.4-0.2
	c6.8-1.1,13.7-0.8,20.3,0.9c3.4,0.9,6.6,2.1,9.8,3.5c2.7,1.2,5.3,2.5,7.9,3.9c0,0.2-0.1,0.3-0.1,0.4c0,0.3-0.1,0.7,0,1
	c0,0.6,0.1,1.2,0.3,1.7c0.3,1.1,1,2,1.8,2.7c0.4,0.3,0.8,0.6,1.2,0.8c0,0,0,0,0,0l0,0c1,1,2.1,1.9,3,2.9c1,1,1.9,2.1,2.8,3.2
	c0.9,1.2,1.6,2.4,2.2,3.7c0.6,1.3,1.1,2.7,1.4,4.1v0c0,0,0,0,0,0.1c0.1,0.3,0.3,0.4,0.6,0.3c0.2-0.1,0.4-0.4,0.3-0.6
	c-0.5-1.5-1-2.9-1.5-4.3c-0.6-1.4-1.2-2.7-1.9-4.1c-0.7-1.3-1.6-2.6-2.6-3.7c-0.3-0.4-0.7-0.7-1-1c0.6,0,1.1-0.1,1.7-0.3
	c0.7-0.2,1.3-0.6,1.9-1c0.4,0.4,0.7,0.8,1.1,1.3c0.6,0.8,1.1,1.6,1.5,2.4c0.4,0.9,0.8,1.8,1.1,2.7c0.3,0.9,0.6,1.9,0.7,2.9v0
	c0,0.2,0.2,0.3,0.4,0.3c0.2,0,0.3-0.2,0.3-0.4c-0.4-2-0.9-4-1.6-5.9c-0.4-1-0.8-1.9-1.4-2.8c-0.3-0.5-0.7-1-1.2-1.4
	c0.7-0.9,1.2-2,1.4-3.2c0-0.3,0.1-0.7,0.1-1l0,0c0.4,0.6,0.7,1.1,1.1,1.7c0.4,0.8,0.9,1.5,1.2,2.4c0.4,0.8,0.7,1.7,0.9,2.6
	c0.2,0.9,0.4,1.8,0.4,2.7v0c0,0,0,0,0,0c0,0.2,0.2,0.3,0.4,0.3c0.2,0,0.3-0.2,0.3-0.4c-0.1-1.9-0.5-3.8-1-5.6
	c-0.3-0.9-0.6-1.8-1-2.7c-0.3-0.7-0.8-1.3-1.4-1.9c0.3-0.2,0.7-0.5,1.1-0.6c0.9-0.3,1.8-0.5,2.8-0.5c-0.1,0.4,0,0.7,0,1.1
	c0.1,0.6,0.2,1.2,0.3,1.9c0.2,1.2,0.2,2.5,0.3,3.7c0,0.2,0.1,0.3,0.3,0.3c0.2,0,0.4-0.2,0.4-0.3c0-1.2,0.1-2.5,0.3-3.7
	c0.1-0.6,0.2-1.2,0.3-1.9c0-0.4,0.1-0.7,0-1.1c0.9,0,1.9,0.2,2.8,0.5c0.4,0.1,0.7,0.4,1.1,0.6c-0.5,0.6-1,1.2-1.4,1.9
	c-0.4,0.9-0.8,1.8-1,2.7c-0.5,1.8-0.9,3.7-1,5.6c0,0,0,0,0,0c0,0.2,0.1,0.4,0.3,0.4c0.2,0,0.4-0.1,0.4-0.3v0c0-0.9,0.2-1.8,0.4-2.7
	c0.2-0.9,0.5-1.8,0.9-2.6c0.4-0.8,0.8-1.6,1.3-2.4c0.4-0.6,0.7-1.1,1.1-1.7c0.1,0.2,0.2,0.3,0.3,0.5c0,0.2,0,0.4,0,0.5
	c0.1,1.1,0.6,2.2,1.3,3c-0.5,0.5-1,1-1.3,1.6c-0.6,0.9-1,1.8-1.4,2.8c-0.7,1.9-1.2,3.9-1.6,5.9c0,0,0,0,0,0c0,0.2,0.1,0.4,0.3,0.4
	c0.2,0,0.4-0.1,0.4-0.3c0.1-1,0.4-1.9,0.7-2.9c0.3-0.9,0.7-1.8,1.1-2.7c0.4-0.9,1-1.7,1.5-2.4c0.4-0.5,0.8-0.9,1.2-1.4
	c0.6,0.5,1.3,0.9,2,1.1c0.5,0.2,0.9,0.2,1.4,0.3c-0.4,0.3-0.7,0.7-1,1c-1,1.1-1.9,2.4-2.6,3.7c-0.7,1.3-1.4,2.7-1.9,4.1
	c-0.6,1.4-1.1,2.8-1.5,4.3c0,0,0,0,0,0.1c0,0.3,0.1,0.5,0.4,0.6c0.2,0.1,0.5-0.1,0.6-0.4v0c0.3-1.4,0.8-2.8,1.4-4.1
	c0.6-1.3,1.3-2.6,2.2-3.7c0.8-1.2,1.8-2.2,2.8-3.2c0.9-1,1.9-1.8,2.9-2.8c0.6-0.3,1.2-0.6,1.7-1c0.8-0.7,1.5-1.6,1.8-2.7
	c0.2-0.6,0.2-1.1,0.3-1.7c0-0.3,0-0.6,0-1c0-0.2-0.1-0.4-0.1-0.6c2.5-1.3,5.1-2.6,7.7-3.8c3.2-1.4,6.4-2.6,9.8-3.5
	c6.7-1.7,13.7-2,20.6-0.8c0,0,0,0,0,0l0.1,0c0.1,0,0.1,0.1,0.2,0.1c0.1,0,0.1,0,0.2,0c6.5,1.4,12.8,4.2,17.8,8.5
	c2.5,2.2,4.7,4.9,6,7.9c0.6,1.5,1.1,3,1.4,4.6C293.5,120,292.4,117.9,290.9,116z M209.2,158.5c-1.1-1.1-2.2-2.3-3.3-3.5
	c-1.1-1.2-2-2.5-2.9-3.8c-0.9-1.3-1.7-2.8-2.3-4.3c-0.6-1.5-1.1-3.1-1.5-4.7c0-0.2-0.2-0.3-0.4-0.3c-0.2,0-0.3,0.2-0.3,0.4
	c0.6,3.3,1.7,6.5,3.4,9.5c0.8,1.5,1.8,2.9,2.8,4.2c1.1,1.3,2.2,2.5,3.7,3.4c0.2,0.1,0.5,0.1,0.7-0.1
	C209.5,159.2,209.5,158.8,209.2,158.5L209.2,158.5z M244.2,157.6c-1.5-1.4-2.7-3-3.9-4.7c-0.6-0.9-1.1-1.7-1.5-2.7
	c-0.4-0.9-0.8-1.8-1.1-2.8c-0.6-1.9-0.8-3.9-0.3-5.8c0.5-1.8,1.9-3.4,3.7-4c0.9-0.3,1.9-0.4,2.7-0.2c0.2,0.1,0.4,0.1,0.6,0.2
	c0.1,0.1,0.2,0.1,0.3,0.2l0.3,0.2c0.4,0.3,0.7,0.6,1,1c0.6,0.8,0.8,1.7,0.7,2.7c-0.1,0.5-0.2,1-0.5,1.4c-0.2,0.4-0.7,0.8-0.9,0.7
	c-0.3-0.1-0.6,0-0.8,0.2c-0.4,0.4-0.4,1-0.1,1.4c0.4,0.4,1,0.5,1.4,0.1l0.3-0.3c0.7-0.6,0.8-1.2,1.1-1.7c0.2-0.6,0.4-1.1,0.4-1.7
	c0.2-1.2-0.1-2.4-0.8-3.4c-0.3-0.5-0.7-0.9-1.2-1.3l-0.3-0.2c-0.1-0.1-0.3-0.2-0.4-0.3c-0.3-0.1-0.6-0.3-0.8-0.4
	c-1.1-0.4-2.3-0.3-3.5,0c-2.2,0.6-4.1,2.4-5,4.7c-0.8,2.3-0.7,4.8-0.1,7c0.3,1.1,0.7,2.2,1.2,3.2c0.5,1,1,2,1.7,2.9
	c1.2,1.9,2.9,3.5,4.7,4.7c3.7,2.4,7.8,3.8,12.2,4c0,0,0,0,0,0c0.3,0,0.5-0.3,0.5-0.5c0-0.3-0.2-0.5-0.5-0.5h0c-2,0.1-4.1-0.3-6-1.1
	C247.5,160.1,245.7,159,244.2,157.6z M209,161.9l-0.1,0c-1.2-0.3-2.5-0.8-3.7-1.3c-1.2-0.6-2.4-1.3-3.5-2.2c-1.1-0.9-2.1-1.9-3.1-3
	c-0.9-1.1-1.8-2.2-2.6-3.5c-0.1-0.2-0.4-0.3-0.6-0.1c-0.2,0.1-0.2,0.4-0.1,0.6c1.6,2.5,3.4,4.9,5.5,7c1.1,1,2.3,2,3.6,2.7
	c1.4,0.7,2.8,1.3,4.5,0.9c0.2,0,0.4-0.2,0.4-0.4C209.5,162.3,209.3,161.9,209,161.9z M211.8,157.4c0.3,0.3,0.8,0.2,1.1-0.1
	c0.5-0.6,0.3-1.2,0.3-1.9c-0.1-0.6-0.2-1.2-0.3-1.9c-0.1-1.2-0.2-2.5-0.3-3.7c0-0.2-0.2-0.3-0.3-0.3c-0.2,0-0.3,0.1-0.4,0.3
	c0,1.2-0.1,2.5-0.3,3.7c-0.1,0.6-0.2,1.2-0.3,1.9c0,0.6-0.2,1.2,0.3,1.9C211.7,157.3,211.7,157.4,211.8,157.4z M194.3,95.6
	c0.9,0.3,2.2,0.5,3.9,0.5c2.1,0,4.1-0.2,5.9-0.7c1.5,0.5,3.2,0.8,5.1,0.8c3.6,0,6.9-0.9,9.7-2.8c2.9-1.8,5.1-4.2,6.6-7.2
	c1.6-2.9,2.3-5.7,2.3-8.3c0-0.8-0.1-1.6-0.4-2.4l1.3-0.9c0.5-0.3,0.9-0.6,1.2-0.8l1.4-0.9c0.1-0.1,0.2-0.3,0.1-0.4l-0.1-0.2
	c0-0.1-0.1-0.1-0.2-0.2c-0.1,0-0.2,0-0.2,0l-2.2,1.4c-0.6,0.4-1.2,0.7-1.6,1c-0.9-2.4-2.5-4.3-4.6-5.4c-2.2-1.2-4.8-1.8-7.6-1.8
	c-3.1,0-6.1,0.5-9.1,1.6c-3,1.1-5.4,2.6-7.2,4.6c-1.8,2-2.6,4.3-2.6,6.6c0,1.7,0.7,3.2,2,4.4c1.3,1.2,3.1,1.8,5.2,1.8
	c3.7,0,7.1-1,10.3-3.1c3.2-2.1,4.9-4.3,4.9-6.6c0-0.8-0.4-1.6-1.2-2.4c-0.8-0.8-1.8-1.2-3.1-1.2c-2.4,0-5,0.9-7.7,2.7
	c-2.6,1.8-4.9,4.1-6.7,7c-0.1,0.1-0.1,0.3,0.1,0.4l0.1,0.1c0.1,0.1,0.2,0.1,0.2,0.1c0.1,0,0.2-0.1,0.2-0.1c1.9-3,4.1-5.3,6.6-6.9
	c2.5-1.6,4.9-2.4,7-2.4c1.1,0,1.9,0.3,2.5,0.9c0.6,0.6,0.9,1.2,0.9,1.9c0,2-1.5,4-4.5,6c-3,2-6.4,2.9-9.9,2.9
	c-1.9,0-3.4-0.5-4.4-1.4c-1.1-0.9-1.6-1.9-1.6-2.9c0-1.6,1-3.5,2.9-5.8c1.9-2.3,4.3-4.1,6.8-5.3c2.6-1.3,5.4-1.9,8.2-1.9
	c2.6,0,4.9,0.6,7,1.8c2,1.1,3.4,2.9,4.2,5.1c-2.9,2-6.3,5.4-10,10.2c-1.8,2.3-3,3.7-3.7,4.4c-0.7,0.7-1.4,1.4-2.3,2
	c-0.8,0.6-1.7,1.2-2.4,1.5c-0.7,0.4-1.5,0.6-2.3,0.9c-1,0.3-1.2,0.3-1.1,0.3l-2.9-1c-2.2-0.6-4-1-5.6-1c-0.9,0-3.4,0-3.4,1.6
	C192.8,94.7,193.3,95.2,194.3,95.6z M209.4,94c1-0.4,2-0.9,3-1.5c0.9-0.5,1.8-1.2,2.7-1.9c0.7-0.6,1.4-1.2,1.9-1.9
	c0.6-0.7,1.4-1.8,2.3-3.4c1.3-2,2.3-3.5,3-4.5c0.9-1.1,1.7-2.1,2.4-2.9c0.7-0.7,1.4-1.3,2.2-1.9c0.2,0.6,0.3,1.3,0.3,1.9
	c0,2.5-0.8,5.2-2.3,8.1c-1.5,2.8-3.7,5.1-6.4,6.8c-2.7,1.7-5.4,2.6-8.2,2.6c-0.2,0-0.4,0-0.6,0c-0.2,0-0.4,0-0.6,0
	c-0.2,0-0.4,0-0.6-0.1l-0.6-0.1l-1.3-0.3C207.3,94.7,208.2,94.4,209.4,94z M195.8,93.4c2.1,0,4.5,0.5,6.9,1.5
	c-1.3,0.3-2.8,0.4-4.5,0.4c-1.7,0-2.9-0.2-3.6-0.5c-0.9-0.4-0.9-0.7-0.9-0.7C193.7,93.5,195,93.4,195.8,93.4z"/>
</svg>
