<?xml version="1.0" encoding="utf-8"?>
<!-- Generator: Adobe Illustrator 21.0.2, SVG Export Plug-In . SVG Version: 6.00 Build 0)  -->
<svg version="1.1" id="Слой_1" xmlns="http://www.w3.org/2000/svg" xmlns:xlink="http://www.w3.org/1999/xlink" x="0px" y="0px"
	 viewBox="0 0 520 520" style="enable-background:new 0 0 520 520;" xml:space="preserve">
<style type="text/css">
	.st0{fill:#516C9B;}
</style>
<g id="s0z3bd.tif">
	<g>
		<path class="st0" d="M332,521c-1.3,0-2.5,0-3.8,0c-2.3-0.2-4.7-0.7-7-0.7c-60.2,0-120.5,0-180.7,0c-12.4,0-24.8-0.1-37.2,0
			c-5.2,0-8.7-2.1-11.2-6.6c-17.7-32-35.5-63.9-53.2-95.8c-3.5-6.4-1.1-12.8,5.7-15.6c1.3-0.5,2.7-0.9,4.1-1.4
			c34.3-11.4,68.7-22.9,103-34.3c1.7-0.6,3.3-1.3,5.6-2.1c-2.3-2.2-3.9-3.7-5.5-5.2c-22.8-20.7-45.6-41.5-68.5-62.2
			c-10.2-9.3-20.5-18.6-30.7-27.9c-5.9-5.5-5.9-11.7,0-17.3c0.8-0.8,1.7-1.5,2.5-2.2c32.6-29.6,65.2-59.2,97.7-88.9
			c1.3-1.2,2.6-2.5,4.4-4.2c-2.4-0.9-4-1.5-5.6-2.1c-35.1-11.7-70.2-23.4-105.3-35.1c-8.9-3-11.3-9.3-6.8-17.4
			C49.3,84.3,59.1,66.6,68.9,49c7.6-13.7,15.4-27.4,22.9-41.3c2.6-4.9,6.4-7.3,11.9-7c1.9,0.1,3.8,0,5.7,0c70.9,0,141.8,0,212.7,0
			c2.3,0,4.7-0.5,7-0.7c0.3,0,0.6,0,1,0c4,1.3,7.4,3.1,9.5,7.2c10.2,19.9,20.7,39.7,31,59.6c32.7,62.6,65.4,125.3,98.2,187.9
			c2.1,4,1.9,7.7-0.2,11.8c-28.8,55-57.5,110.1-86.2,165.1c-13.4,25.8-27,51.5-40.3,77.3C339.5,513.8,337.6,518.9,332,521z
			 M210.5,345c0-56.7,0-112.7,0-169.1c-10.2-3.9-20.3-7.8-30.4-11.6c-35.3,32.1-70.3,63.9-105.8,96.2
			c35.5,32.3,70.6,64.2,105.8,96.2C190.4,352.7,200.3,348.9,210.5,345z M232.1,184.3c0,51.2,0,101.5,0,152.4
			c66-25.4,131.3-50.5,196.7-75.6c-0.1-0.4-0.1-0.8-0.2-1.2C363.3,234.7,298,209.6,232.1,184.3z M107.9,498.7
			c64.7,0,128.9,0,194.3,0c-27.9-25.9-54.8-50.9-81.4-75.6c-51.7,0-102.8,0-154.8,0C80.3,448.9,94.2,473.9,107.9,498.7z M65.9,97.9
			c52.2,0,103.2,0,154.8,0c26.7-24.9,53.9-49.8,80.7-75.1c-0.2-0.3-0.4-0.6-0.6-0.8c-64.1,0-128.3,0-192.7,0
			C94.2,47,80.3,72,65.9,97.9z M326.7,492.6c35.1-67.2,69.8-133.7,104.4-200.2c-0.3-0.3-0.5-0.5-0.8-0.8
			C367.2,331.8,304,372,240.4,412.5C269.4,439.4,297.6,465.7,326.7,492.6z M240.4,108.4c63.7,40.6,126.7,80.6,189.8,120.7
			c0.3-0.3,0.6-0.6,0.9-0.9c-34.7-66.5-69.4-132.9-104.3-199.9C297.7,55.2,269.4,81.5,240.4,108.4z M360.5,311.1
			c-0.2-0.3-0.4-0.6-0.6-1c-42.6,16.4-85.3,32.8-127.8,49.2c0,11.2,0,21.8,0,33.5C275.4,365.2,318,338.1,360.5,311.1z M232,161.6
			c42.7,16.4,85.3,32.8,127.9,49.2c0.2-0.3,0.3-0.7,0.5-1c-42.6-27.1-85.1-54.1-128.4-81.7C232,139.7,232,150.3,232,161.6z
			 M116.4,400.5c0.1,0.3,0.2,0.6,0.2,0.9c26.5,0,52.9,0,79.4,0c0.1-0.3,0.2-0.6,0.3-0.9c-7-6.5-14.1-13.1-21.1-19.6
			C155.3,387.5,135.9,394,116.4,400.5z M116.8,119.3c-0.1,0.4-0.2,0.8-0.3,1.2c19.6,6.5,39.2,13,58.7,19.5
			c7.4-6.8,14.4-13.2,21.2-19.8c-0.2-0.3-0.4-0.6-0.7-0.9C169.5,119.3,143.1,119.3,116.8,119.3z M210.4,137.5
			c-0.3-0.1-0.6-0.3-0.9-0.4c-3.8,3.6-7.7,7.1-12.1,11.2c4.9,1.9,8.6,3.3,13,5C210.4,147.4,210.4,142.5,210.4,137.5z M210.5,367.6
			c-4.7,1.8-8.5,3.3-13,5.1c4.6,4.4,8.4,7.9,13,12C210.5,378.4,210.5,373.5,210.5,367.6z"/>
		<path class="st0" d="M496.9,441.4c-1.3,5.2-2.2,9.3-3.2,13.4c-4.2-0.6-7.9-1.5-11.7-1.7c-9.8-0.4-15.4,5.5-15.2,16.1
			c1.1-0.4,2-0.6,2.9-1.1c14.8-7.5,29.4-1.1,33.4,15c1.8,7.2,1.9,14.5-1.4,21.4c-4.7,9.8-12.6,14.8-23.4,15.4
			c-11.6,0.6-20.9-3.5-26.8-13.8c-2.7-4.8-4-10-4-15.5c0-6.7,0-13.3,0-20c-0.1-18.8,13.6-33.6,36-31.9
			C487.9,439,492.1,440.4,496.9,441.4z M466.3,483.4c-0.3,5.3-0.5,10.7,1.7,15.8c1.8,4.1,5.2,6.6,8.7,6.3c4.2-0.4,6.5-3.2,7.7-6.8
			c0.8-2.4,1.2-5,1.1-7.4c-0.2-4.6-1.4-9.2-6.2-10.9C474.6,478.7,470.2,479.9,466.3,483.4z"/>
		<path class="st0" d="M415.2,459.6c-6.2,0-11.6,0-17.4,0c0-4.7,0-8.9,0-13.4c11.8-1.8,23.5-3.6,35.7-5.4c0,26.6,0,52.6,0,78.9
			c-6.1,0-11.9,0-18.3,0C415.2,499.8,415.2,480.2,415.2,459.6z"/>
	</g>
</g>
</svg>
